G04 (created by PCBNEW (2013-05-16 BZR 4016)-stable) date 11/18/2013 1:12:52 AM*
%MOIN*%
G04 Gerber Fmt 3.4, Leading zero omitted, Abs format*
%FSLAX34Y34*%
G01*
G70*
G90*
G04 APERTURE LIST*
%ADD10C,0.00590551*%
%ADD11C,0.0551*%
%ADD12R,0.06X0.06*%
%ADD13C,0.06*%
%ADD14C,0.0709*%
%ADD15C,0.063*%
%ADD16R,0.025X0.045*%
%ADD17R,0.035X0.055*%
%ADD18C,0.0669291*%
%ADD19C,0.0708661*%
%ADD20C,0.0590551*%
%ADD21R,0.0708661X0.0944882*%
%ADD22C,0.16*%
%ADD23R,0.08X0.06*%
%ADD24R,0.055X0.035*%
%ADD25R,0.015748X0.0669291*%
%ADD26R,0.0216535X0.0590551*%
%ADD27R,0.0472441X0.0472441*%
%ADD28R,0.0314X0.0314*%
%ADD29O,0.0590551X0.0590551*%
%ADD30C,0.0472441*%
%ADD31R,0.0728346X0.015748*%
G04 APERTURE END LIST*
G54D10*
G54D11*
X58220Y-50386D03*
X58220Y-48614D03*
X60780Y-50386D03*
X60780Y-48614D03*
X54220Y-50386D03*
X54220Y-48614D03*
X56780Y-50386D03*
X56780Y-48614D03*
X50220Y-50386D03*
X50220Y-48614D03*
X52780Y-50386D03*
X52780Y-48614D03*
G54D12*
X46500Y-45000D03*
G54D13*
X46500Y-44000D03*
X46500Y-43000D03*
X46500Y-42000D03*
X46500Y-41000D03*
G54D14*
X58000Y-36181D03*
X56031Y-38150D03*
X57016Y-38150D03*
X58984Y-38150D03*
X59969Y-38150D03*
G54D15*
X58000Y-38150D03*
X56031Y-36181D03*
X59969Y-36181D03*
G54D14*
X63000Y-36181D03*
X61031Y-38150D03*
X62016Y-38150D03*
X63984Y-38150D03*
X64969Y-38150D03*
G54D15*
X63000Y-38150D03*
X61031Y-36181D03*
X64969Y-36181D03*
G54D16*
X57925Y-40375D03*
X57325Y-40375D03*
X47950Y-47750D03*
X48550Y-47750D03*
X61925Y-47125D03*
X61325Y-47125D03*
X61925Y-41500D03*
X61325Y-41500D03*
X47950Y-49250D03*
X48550Y-49250D03*
X48425Y-41250D03*
X47825Y-41250D03*
X47950Y-48500D03*
X48550Y-48500D03*
X47950Y-47000D03*
X48550Y-47000D03*
X57925Y-41500D03*
X57325Y-41500D03*
G54D17*
X54625Y-40000D03*
X53875Y-40000D03*
X49125Y-40000D03*
X48375Y-40000D03*
X59250Y-46000D03*
X58500Y-46000D03*
X59375Y-41500D03*
X58625Y-41500D03*
X63375Y-41500D03*
X62625Y-41500D03*
X63250Y-46000D03*
X62500Y-46000D03*
G54D16*
X52450Y-40000D03*
X53050Y-40000D03*
G54D18*
X52397Y-36314D03*
X54602Y-36314D03*
G54D19*
X52500Y-37342D03*
X54500Y-37342D03*
G54D20*
X52500Y-38377D03*
X54500Y-38377D03*
X53500Y-38377D03*
G54D18*
X48397Y-36314D03*
X50602Y-36314D03*
G54D19*
X48500Y-37342D03*
X50500Y-37342D03*
G54D20*
X48500Y-38377D03*
X50500Y-38377D03*
X49500Y-38377D03*
G54D21*
X54001Y-41500D03*
X55498Y-41500D03*
G54D22*
X46500Y-36500D03*
X64500Y-49500D03*
G54D23*
X57500Y-45725D03*
X57500Y-47025D03*
X61500Y-44400D03*
X61500Y-43100D03*
X61875Y-49525D03*
X61875Y-48225D03*
G54D16*
X60675Y-40375D03*
X60075Y-40375D03*
X60675Y-47125D03*
X60075Y-47125D03*
X60675Y-41500D03*
X60075Y-41500D03*
X60675Y-46000D03*
X60075Y-46000D03*
X64675Y-47125D03*
X64075Y-47125D03*
X59175Y-47125D03*
X58575Y-47125D03*
X59300Y-40375D03*
X58700Y-40375D03*
X63300Y-40375D03*
X62700Y-40375D03*
X63175Y-47125D03*
X62575Y-47125D03*
X64675Y-40375D03*
X64075Y-40375D03*
X64675Y-41500D03*
X64075Y-41500D03*
X64675Y-46000D03*
X64075Y-46000D03*
X50550Y-46000D03*
X49950Y-46000D03*
X49050Y-46000D03*
X48450Y-46000D03*
X55450Y-40125D03*
X56050Y-40125D03*
G54D17*
X49125Y-41250D03*
X49875Y-41250D03*
G54D24*
X51500Y-46875D03*
X51500Y-46125D03*
G54D25*
X52836Y-47167D03*
X53092Y-47167D03*
X53348Y-47167D03*
X53604Y-47167D03*
X53860Y-47167D03*
X54116Y-47167D03*
X54372Y-47167D03*
X54627Y-47167D03*
X54883Y-47167D03*
X55139Y-47167D03*
X55395Y-47167D03*
X55651Y-47167D03*
X55907Y-47167D03*
X56163Y-47167D03*
X56163Y-44332D03*
X55907Y-44332D03*
X55651Y-44332D03*
X55395Y-44332D03*
X55139Y-44332D03*
X54883Y-44332D03*
X54627Y-44332D03*
X54372Y-44332D03*
X54116Y-44332D03*
X53860Y-44332D03*
X53604Y-44332D03*
X53348Y-44332D03*
X53092Y-44332D03*
X52836Y-44332D03*
G54D26*
X48750Y-42562D03*
X49250Y-42562D03*
X49750Y-42562D03*
X50250Y-42562D03*
X50250Y-44687D03*
X49750Y-44687D03*
X49250Y-44687D03*
X48750Y-44687D03*
X62750Y-42687D03*
X63250Y-42687D03*
X63750Y-42687D03*
X64250Y-42687D03*
X64250Y-44812D03*
X63750Y-44812D03*
X63250Y-44812D03*
X62750Y-44812D03*
X58750Y-42687D03*
X59250Y-42687D03*
X59750Y-42687D03*
X60250Y-42687D03*
X60250Y-44812D03*
X59750Y-44812D03*
X59250Y-44812D03*
X58750Y-44812D03*
G54D27*
X51500Y-43929D03*
X51500Y-45070D03*
G54D17*
X50250Y-40000D03*
X51000Y-40000D03*
G54D28*
X46500Y-39670D03*
X46500Y-39080D03*
G54D23*
X57500Y-44400D03*
X57500Y-43100D03*
G54D29*
X45570Y-46622D03*
X45570Y-49377D03*
G54D30*
X46633Y-47015D03*
X46633Y-48984D03*
G54D31*
X46732Y-48000D03*
X46732Y-47744D03*
X46732Y-47488D03*
X46732Y-48255D03*
X46732Y-48511D03*
M02*
