G04 (created by PCBNEW (2013-05-16 BZR 4016)-stable) date 11/18/2013 1:12:51 AM*
%MOIN*%
G04 Gerber Fmt 3.4, Leading zero omitted, Abs format*
%FSLAX34Y34*%
G01*
G70*
G90*
G04 APERTURE LIST*
%ADD10C,0.00590551*%
%ADD11C,0.0551*%
%ADD12R,0.06X0.06*%
%ADD13C,0.06*%
%ADD14C,0.0709*%
%ADD15C,0.063*%
%ADD16R,0.025X0.045*%
%ADD17R,0.035X0.055*%
%ADD18C,0.0669291*%
%ADD19C,0.0708661*%
%ADD20C,0.0590551*%
%ADD21R,0.0708661X0.0944882*%
%ADD22C,0.16*%
%ADD23R,0.08X0.06*%
%ADD24R,0.055X0.035*%
%ADD25R,0.015748X0.0669291*%
%ADD26R,0.0216535X0.0590551*%
%ADD27R,0.0472441X0.0472441*%
%ADD28R,0.0314X0.0314*%
%ADD29O,0.0590551X0.0590551*%
%ADD30C,0.0472441*%
%ADD31R,0.0728346X0.015748*%
%ADD32C,0.035*%
%ADD33C,0.015748*%
%ADD34C,0.012*%
%ADD35C,0.01*%
G04 APERTURE END LIST*
G54D10*
G54D11*
X58220Y-50386D03*
X58220Y-48614D03*
X60780Y-50386D03*
X60780Y-48614D03*
X54220Y-50386D03*
X54220Y-48614D03*
X56780Y-50386D03*
X56780Y-48614D03*
X50220Y-50386D03*
X50220Y-48614D03*
X52780Y-50386D03*
X52780Y-48614D03*
G54D12*
X46500Y-45000D03*
G54D13*
X46500Y-44000D03*
X46500Y-43000D03*
X46500Y-42000D03*
X46500Y-41000D03*
G54D14*
X58000Y-36181D03*
X56031Y-38150D03*
X57016Y-38150D03*
X58984Y-38150D03*
X59969Y-38150D03*
G54D15*
X58000Y-38150D03*
X56031Y-36181D03*
X59969Y-36181D03*
G54D14*
X63000Y-36181D03*
X61031Y-38150D03*
X62016Y-38150D03*
X63984Y-38150D03*
X64969Y-38150D03*
G54D15*
X63000Y-38150D03*
X61031Y-36181D03*
X64969Y-36181D03*
G54D16*
X57925Y-40375D03*
X57325Y-40375D03*
X47950Y-47750D03*
X48550Y-47750D03*
X61925Y-47125D03*
X61325Y-47125D03*
X61925Y-41500D03*
X61325Y-41500D03*
X47950Y-49250D03*
X48550Y-49250D03*
X48425Y-41250D03*
X47825Y-41250D03*
X47950Y-48500D03*
X48550Y-48500D03*
X47950Y-47000D03*
X48550Y-47000D03*
X57925Y-41500D03*
X57325Y-41500D03*
G54D17*
X54625Y-40000D03*
X53875Y-40000D03*
X49125Y-40000D03*
X48375Y-40000D03*
X59250Y-46000D03*
X58500Y-46000D03*
X59375Y-41500D03*
X58625Y-41500D03*
X63375Y-41500D03*
X62625Y-41500D03*
X63250Y-46000D03*
X62500Y-46000D03*
G54D16*
X52450Y-40000D03*
X53050Y-40000D03*
G54D18*
X52397Y-36314D03*
X54602Y-36314D03*
G54D19*
X52500Y-37342D03*
X54500Y-37342D03*
G54D20*
X52500Y-38377D03*
X54500Y-38377D03*
X53500Y-38377D03*
G54D18*
X48397Y-36314D03*
X50602Y-36314D03*
G54D19*
X48500Y-37342D03*
X50500Y-37342D03*
G54D20*
X48500Y-38377D03*
X50500Y-38377D03*
X49500Y-38377D03*
G54D21*
X54001Y-41500D03*
X55498Y-41500D03*
G54D22*
X46500Y-36500D03*
X64500Y-49500D03*
G54D23*
X57500Y-45725D03*
X57500Y-47025D03*
X61500Y-44400D03*
X61500Y-43100D03*
X61875Y-49525D03*
X61875Y-48225D03*
G54D16*
X60675Y-40375D03*
X60075Y-40375D03*
X60675Y-47125D03*
X60075Y-47125D03*
X60675Y-41500D03*
X60075Y-41500D03*
X60675Y-46000D03*
X60075Y-46000D03*
X64675Y-47125D03*
X64075Y-47125D03*
X59175Y-47125D03*
X58575Y-47125D03*
X59300Y-40375D03*
X58700Y-40375D03*
X63300Y-40375D03*
X62700Y-40375D03*
X63175Y-47125D03*
X62575Y-47125D03*
X64675Y-40375D03*
X64075Y-40375D03*
X64675Y-41500D03*
X64075Y-41500D03*
X64675Y-46000D03*
X64075Y-46000D03*
X50550Y-46000D03*
X49950Y-46000D03*
X49050Y-46000D03*
X48450Y-46000D03*
X55450Y-40125D03*
X56050Y-40125D03*
G54D17*
X49125Y-41250D03*
X49875Y-41250D03*
G54D24*
X51500Y-46875D03*
X51500Y-46125D03*
G54D25*
X52836Y-47167D03*
X53092Y-47167D03*
X53348Y-47167D03*
X53604Y-47167D03*
X53860Y-47167D03*
X54116Y-47167D03*
X54372Y-47167D03*
X54627Y-47167D03*
X54883Y-47167D03*
X55139Y-47167D03*
X55395Y-47167D03*
X55651Y-47167D03*
X55907Y-47167D03*
X56163Y-47167D03*
X56163Y-44332D03*
X55907Y-44332D03*
X55651Y-44332D03*
X55395Y-44332D03*
X55139Y-44332D03*
X54883Y-44332D03*
X54627Y-44332D03*
X54372Y-44332D03*
X54116Y-44332D03*
X53860Y-44332D03*
X53604Y-44332D03*
X53348Y-44332D03*
X53092Y-44332D03*
X52836Y-44332D03*
G54D26*
X48750Y-42562D03*
X49250Y-42562D03*
X49750Y-42562D03*
X50250Y-42562D03*
X50250Y-44687D03*
X49750Y-44687D03*
X49250Y-44687D03*
X48750Y-44687D03*
X62750Y-42687D03*
X63250Y-42687D03*
X63750Y-42687D03*
X64250Y-42687D03*
X64250Y-44812D03*
X63750Y-44812D03*
X63250Y-44812D03*
X62750Y-44812D03*
X58750Y-42687D03*
X59250Y-42687D03*
X59750Y-42687D03*
X60250Y-42687D03*
X60250Y-44812D03*
X59750Y-44812D03*
X59250Y-44812D03*
X58750Y-44812D03*
G54D27*
X51500Y-43929D03*
X51500Y-45070D03*
G54D17*
X50250Y-40000D03*
X51000Y-40000D03*
G54D28*
X46500Y-39670D03*
X46500Y-39080D03*
G54D23*
X57500Y-44400D03*
X57500Y-43100D03*
G54D29*
X45570Y-46622D03*
X45570Y-49377D03*
G54D30*
X46633Y-47015D03*
X46633Y-48984D03*
G54D31*
X46732Y-48000D03*
X46732Y-47744D03*
X46732Y-47488D03*
X46732Y-48255D03*
X46732Y-48511D03*
G54D32*
X63000Y-39125D03*
X60500Y-37000D03*
X58000Y-39125D03*
X53500Y-50000D03*
X53500Y-49000D03*
X47000Y-50000D03*
X48000Y-50000D03*
X49000Y-50000D03*
X53500Y-37375D03*
X53500Y-36375D03*
X50250Y-41250D03*
X47500Y-40000D03*
X57500Y-50000D03*
X59500Y-49000D03*
X57500Y-49000D03*
X60125Y-48250D03*
X63625Y-46625D03*
X59625Y-46625D03*
X61125Y-45875D03*
X61750Y-46500D03*
X62250Y-43750D03*
X57125Y-42250D03*
X58250Y-40875D03*
X63750Y-43375D03*
X59750Y-43375D03*
X64250Y-44250D03*
X60250Y-44250D03*
X50625Y-44750D03*
X55500Y-46500D03*
X53750Y-46500D03*
X55375Y-44875D03*
X54375Y-44875D03*
X64500Y-37000D03*
X62500Y-37000D03*
X63500Y-37000D03*
X65250Y-41000D03*
X65250Y-39750D03*
X64750Y-43500D03*
X46000Y-38000D03*
X47000Y-38000D03*
X64000Y-48000D03*
X63000Y-49000D03*
X63000Y-48000D03*
X65000Y-48000D03*
X63000Y-50000D03*
X49500Y-36250D03*
X49500Y-37375D03*
X56750Y-44875D03*
X51875Y-40375D03*
X54750Y-41500D03*
X57125Y-43750D03*
X51500Y-45750D03*
X53500Y-40000D03*
X58500Y-37000D03*
X57500Y-37000D03*
X56500Y-37000D03*
X55500Y-37000D03*
X59500Y-37000D03*
X61500Y-37000D03*
X51500Y-41625D03*
X57000Y-41250D03*
X65250Y-41500D03*
X61875Y-40000D03*
X64750Y-45125D03*
X64875Y-41875D03*
X58250Y-43375D03*
X62500Y-42500D03*
X58500Y-42500D03*
X49000Y-44125D03*
X52175Y-45075D03*
X60750Y-45125D03*
X60875Y-41875D03*
X59000Y-49375D03*
X51750Y-48500D03*
X55500Y-49000D03*
X50000Y-45500D03*
X55000Y-47750D03*
X53175Y-47825D03*
X54250Y-46250D03*
X54000Y-45250D03*
X52750Y-42500D03*
X63750Y-45500D03*
X59750Y-45500D03*
X56625Y-47125D03*
X54250Y-43500D03*
X55250Y-42500D03*
X55500Y-43125D03*
X53250Y-41000D03*
X56625Y-41500D03*
X57250Y-40000D03*
G54D33*
X46633Y-48984D02*
X46633Y-48610D01*
X46633Y-48610D02*
X46732Y-48511D01*
X46250Y-48750D02*
X46125Y-48625D01*
X46125Y-48625D02*
X46125Y-48500D01*
X46125Y-48500D02*
X46136Y-48511D01*
X46136Y-48511D02*
X46732Y-48511D01*
X47375Y-48625D02*
X47261Y-48511D01*
X47261Y-48511D02*
X46732Y-48511D01*
X46399Y-48750D02*
X46250Y-48750D01*
X46399Y-48750D02*
X46633Y-48984D01*
X47375Y-48625D02*
X47250Y-48750D01*
X47250Y-48750D02*
X47000Y-48750D01*
X47000Y-48750D02*
X46868Y-48750D01*
X46868Y-48750D02*
X46633Y-48984D01*
X50250Y-41250D02*
X49875Y-41250D01*
X47500Y-40000D02*
X48375Y-40000D01*
X46500Y-38000D02*
X46500Y-39080D01*
G54D34*
X63625Y-46625D02*
X63750Y-46750D01*
X63750Y-46750D02*
X63750Y-46875D01*
X62875Y-46500D02*
X62875Y-47875D01*
X62875Y-47875D02*
X63000Y-48000D01*
X62875Y-45625D02*
X62875Y-46500D01*
X62875Y-46500D02*
X63000Y-46625D01*
X63000Y-46625D02*
X63500Y-46625D01*
X63500Y-46625D02*
X64000Y-46625D01*
X64000Y-46625D02*
X64375Y-46250D01*
X64375Y-46250D02*
X64375Y-45625D01*
X64375Y-45625D02*
X64250Y-45500D01*
X64250Y-45500D02*
X64250Y-44812D01*
X63750Y-43375D02*
X63000Y-44125D01*
X63000Y-44125D02*
X63000Y-45500D01*
X63000Y-45500D02*
X62875Y-45625D01*
X59000Y-43250D02*
X59000Y-45375D01*
X59000Y-45375D02*
X59000Y-45500D01*
X59000Y-45500D02*
X58875Y-45625D01*
X58875Y-45625D02*
X58875Y-46500D01*
X58875Y-46500D02*
X59000Y-46625D01*
X59000Y-46625D02*
X59625Y-46625D01*
X59625Y-46625D02*
X60067Y-46625D01*
X60067Y-46625D02*
X60346Y-46346D01*
X60346Y-46346D02*
X60346Y-45596D01*
X60346Y-45596D02*
X60250Y-45500D01*
X60250Y-45500D02*
X60250Y-44812D01*
X60500Y-43625D02*
X60625Y-43750D01*
X60625Y-43750D02*
X62250Y-43750D01*
X58250Y-42125D02*
X58250Y-40875D01*
X59125Y-43375D02*
X59000Y-43250D01*
X59000Y-43250D02*
X59000Y-43000D01*
X59000Y-43000D02*
X59000Y-42250D01*
X59000Y-42250D02*
X58875Y-42125D01*
X58875Y-42125D02*
X58250Y-42125D01*
X59125Y-43375D02*
X59750Y-43375D01*
X63750Y-43375D02*
X64000Y-43125D01*
X64500Y-44000D02*
X64250Y-44250D01*
X64500Y-42250D02*
X64500Y-44000D01*
X64375Y-42125D02*
X64500Y-42250D01*
X64125Y-42125D02*
X64375Y-42125D01*
X64000Y-42250D02*
X64125Y-42125D01*
X64000Y-43125D02*
X64000Y-42250D01*
X59750Y-43375D02*
X59875Y-43375D01*
X59875Y-43375D02*
X60000Y-43250D01*
X60000Y-43250D02*
X60000Y-42250D01*
X60000Y-42250D02*
X60125Y-42125D01*
X60125Y-42125D02*
X60375Y-42125D01*
X60375Y-42125D02*
X60500Y-42250D01*
X60500Y-42250D02*
X60500Y-43625D01*
X60500Y-43625D02*
X60500Y-44000D01*
X60500Y-44000D02*
X60250Y-44250D01*
G54D33*
X64250Y-44812D02*
X64250Y-44250D01*
X60250Y-44812D02*
X60250Y-44250D01*
X50250Y-44687D02*
X50312Y-44750D01*
X50312Y-44750D02*
X50625Y-44750D01*
X50550Y-45550D02*
X50250Y-45250D01*
X50550Y-46000D02*
X50550Y-45550D01*
X50250Y-45250D02*
X50250Y-44687D01*
X55395Y-47167D02*
X55395Y-46604D01*
X55395Y-46604D02*
X55500Y-46500D01*
X53750Y-46500D02*
X53604Y-46645D01*
X53604Y-46645D02*
X53604Y-47167D01*
X55375Y-44875D02*
X55395Y-44854D01*
X54375Y-44875D02*
X55375Y-44875D01*
X55395Y-44854D02*
X55395Y-44332D01*
X54372Y-44332D02*
X54375Y-44335D01*
X54375Y-44335D02*
X54375Y-44875D01*
X53500Y-44875D02*
X53348Y-44723D01*
X53625Y-44875D02*
X53500Y-44875D01*
X54375Y-44875D02*
X53625Y-44875D01*
X53348Y-44723D02*
X53348Y-44332D01*
X65250Y-39750D02*
X65250Y-41000D01*
X47000Y-38000D02*
X46500Y-38000D01*
X46500Y-38000D02*
X46000Y-38000D01*
X65000Y-48000D02*
X64000Y-48000D01*
X53875Y-40000D02*
X53500Y-40000D01*
X48500Y-38375D02*
X48500Y-38377D01*
X51500Y-45750D02*
X51500Y-46125D01*
X53050Y-40000D02*
X53500Y-40000D01*
X63250Y-42687D02*
X63250Y-42125D01*
X63250Y-42125D02*
X62625Y-41500D01*
X61925Y-41500D02*
X62625Y-41500D01*
X62625Y-41500D02*
X62625Y-40875D01*
X62700Y-40800D02*
X62700Y-40375D01*
X62625Y-40875D02*
X62700Y-40800D01*
X57325Y-41500D02*
X57250Y-41500D01*
X57250Y-41500D02*
X57000Y-41250D01*
X52000Y-41250D02*
X53604Y-42854D01*
X50625Y-40875D02*
X50625Y-39375D01*
X50625Y-39375D02*
X50500Y-39250D01*
X50500Y-38377D02*
X50500Y-39250D01*
X52000Y-41250D02*
X51000Y-41250D01*
X51000Y-41250D02*
X50625Y-40875D01*
X53604Y-42854D02*
X53604Y-44332D01*
X64750Y-47125D02*
X64675Y-47125D01*
X65250Y-46625D02*
X64750Y-47125D01*
X65250Y-41500D02*
X65250Y-46625D01*
X64500Y-39875D02*
X62000Y-39875D01*
X64675Y-40050D02*
X64500Y-39875D01*
X64675Y-40375D02*
X64675Y-40050D01*
X62000Y-39875D02*
X61875Y-40000D01*
X64675Y-46000D02*
X64675Y-45200D01*
X64675Y-45200D02*
X64750Y-45125D01*
X64075Y-47125D02*
X64075Y-46925D01*
X64075Y-46925D02*
X64675Y-46325D01*
X64675Y-46325D02*
X64675Y-46000D01*
X63175Y-47125D02*
X64075Y-47125D01*
X64675Y-41675D02*
X64675Y-41500D01*
X64875Y-41875D02*
X64675Y-41675D01*
X64675Y-41500D02*
X64675Y-41300D01*
X64075Y-40700D02*
X64075Y-40375D01*
X64675Y-41300D02*
X64075Y-40700D01*
X63300Y-40375D02*
X64075Y-40375D01*
X51000Y-46250D02*
X51000Y-44250D01*
X48450Y-46325D02*
X48625Y-46500D01*
X50750Y-46500D02*
X51000Y-46250D01*
X48625Y-46500D02*
X50750Y-46500D01*
X48450Y-46000D02*
X48450Y-46325D01*
X51320Y-43929D02*
X51500Y-43929D01*
X51000Y-44250D02*
X51320Y-43929D01*
X51500Y-43929D02*
X51679Y-43929D01*
X51679Y-43929D02*
X53375Y-45625D01*
X58125Y-45000D02*
X58125Y-43500D01*
X58125Y-43500D02*
X58250Y-43375D01*
X58125Y-45000D02*
X58125Y-46125D01*
X56250Y-46250D02*
X55625Y-45625D01*
X58000Y-46250D02*
X56250Y-46250D01*
X58125Y-46125D02*
X58000Y-46250D01*
X53375Y-45625D02*
X55625Y-45625D01*
X62750Y-42687D02*
X62687Y-42687D01*
X62687Y-42687D02*
X62500Y-42500D01*
X58500Y-42500D02*
X58687Y-42687D01*
X58687Y-42687D02*
X58750Y-42687D01*
X49250Y-44687D02*
X49250Y-44375D01*
X49250Y-44375D02*
X49000Y-44125D01*
X48750Y-44687D02*
X48750Y-44375D01*
X48750Y-44375D02*
X49000Y-44125D01*
X48750Y-44687D02*
X49250Y-44687D01*
X48750Y-45250D02*
X49125Y-45250D01*
X49125Y-45250D02*
X49250Y-45125D01*
X49250Y-45125D02*
X49250Y-44687D01*
X48450Y-45550D02*
X48750Y-45250D01*
X48450Y-46000D02*
X48450Y-45550D01*
X48750Y-45250D02*
X48750Y-44687D01*
X63750Y-42687D02*
X63750Y-41500D01*
X63750Y-41500D02*
X64075Y-41500D01*
X63375Y-41500D02*
X63750Y-41500D01*
X49750Y-44687D02*
X49750Y-45250D01*
X49500Y-45500D02*
X49500Y-46000D01*
X49750Y-45250D02*
X49500Y-45500D01*
X49050Y-46000D02*
X49500Y-46000D01*
X49500Y-46000D02*
X49950Y-46000D01*
X52975Y-45875D02*
X54375Y-45875D01*
X55139Y-47167D02*
X55139Y-46639D01*
X54375Y-45875D02*
X55139Y-46639D01*
X52975Y-45875D02*
X52175Y-45075D01*
X51500Y-45070D02*
X52170Y-45070D01*
X52170Y-45070D02*
X52175Y-45075D01*
X59250Y-46000D02*
X59250Y-44812D01*
X60075Y-46000D02*
X59250Y-46000D01*
X58750Y-43375D02*
X57925Y-42550D01*
X58750Y-44812D02*
X58750Y-43375D01*
X57925Y-42550D02*
X57925Y-41500D01*
X58500Y-45625D02*
X58750Y-45375D01*
X58500Y-46000D02*
X58500Y-45625D01*
X58750Y-45375D02*
X58750Y-44812D01*
X58575Y-47125D02*
X58575Y-46700D01*
X58500Y-46625D02*
X58500Y-46000D01*
X58575Y-46700D02*
X58500Y-46625D01*
X59750Y-41500D02*
X59750Y-42687D01*
X59375Y-41500D02*
X59750Y-41500D01*
X59750Y-41500D02*
X60075Y-41500D01*
X58625Y-41500D02*
X59250Y-42125D01*
X59250Y-42125D02*
X59250Y-42687D01*
X57925Y-40375D02*
X58700Y-40375D01*
X58625Y-41500D02*
X58625Y-40875D01*
X58700Y-40800D02*
X58700Y-40375D01*
X58625Y-40875D02*
X58700Y-40800D01*
X60675Y-46000D02*
X60675Y-45200D01*
X60675Y-45200D02*
X60750Y-45125D01*
X59175Y-47125D02*
X60075Y-47125D01*
X60075Y-47125D02*
X60075Y-46925D01*
X60675Y-46325D02*
X60675Y-46000D01*
X60075Y-46925D02*
X60675Y-46325D01*
X60675Y-41500D02*
X60675Y-41675D01*
X60675Y-41675D02*
X60875Y-41875D01*
X60675Y-41500D02*
X60675Y-41300D01*
X60075Y-40700D02*
X60075Y-40375D01*
X60675Y-41300D02*
X60075Y-40700D01*
X59300Y-40375D02*
X60075Y-40375D01*
X56850Y-45725D02*
X55907Y-44782D01*
X57500Y-45725D02*
X56850Y-45725D01*
X55907Y-44782D02*
X55907Y-44332D01*
X61325Y-47325D02*
X61325Y-47125D01*
X61875Y-47875D02*
X61325Y-47325D01*
X61875Y-48225D02*
X61875Y-47875D01*
X61875Y-48225D02*
X61875Y-48000D01*
X54875Y-48125D02*
X54372Y-47622D01*
X59000Y-49375D02*
X56750Y-49375D01*
X56750Y-49375D02*
X55500Y-48125D01*
X55500Y-48125D02*
X54875Y-48125D01*
X54372Y-47622D02*
X54372Y-47167D01*
X51750Y-48500D02*
X52250Y-48500D01*
X52575Y-48175D02*
X53425Y-48175D01*
X52575Y-48175D02*
X52250Y-48500D01*
X53860Y-47739D02*
X53860Y-47167D01*
X53425Y-48175D02*
X53860Y-47739D01*
X55375Y-49000D02*
X54116Y-47741D01*
X55375Y-49000D02*
X55500Y-49000D01*
X54116Y-47741D02*
X54116Y-47167D01*
X52836Y-44332D02*
X52832Y-44332D01*
X52832Y-44332D02*
X51062Y-42562D01*
X50250Y-42562D02*
X50250Y-43750D01*
G54D34*
X50000Y-44000D02*
X50250Y-43750D01*
X50000Y-45500D02*
X50000Y-44000D01*
G54D33*
X50250Y-42562D02*
X51062Y-42562D01*
X50500Y-48875D02*
X52519Y-48875D01*
X50220Y-48614D02*
X50239Y-48614D01*
X50239Y-48614D02*
X50437Y-48812D01*
X50437Y-48812D02*
X50500Y-48875D01*
X52519Y-48875D02*
X52780Y-48614D01*
X54220Y-48614D02*
X52780Y-48614D01*
X58220Y-48614D02*
X56780Y-48614D01*
X46732Y-48000D02*
X47250Y-48000D01*
X47750Y-48500D02*
X47950Y-48500D01*
X47250Y-48000D02*
X47750Y-48500D01*
X46125Y-48000D02*
X46633Y-48000D01*
X45875Y-47750D02*
X45875Y-46960D01*
X45750Y-45775D02*
X45750Y-43750D01*
X45875Y-47750D02*
X46125Y-48000D01*
X46500Y-43000D02*
X45750Y-43750D01*
X46025Y-46050D02*
X45750Y-45775D01*
X46000Y-46835D02*
X45875Y-46960D01*
X46000Y-46775D02*
X46000Y-46835D01*
X46025Y-46750D02*
X46000Y-46775D01*
X46025Y-46050D02*
X46025Y-46750D01*
X47950Y-48500D02*
X47950Y-49250D01*
X47825Y-41250D02*
X47825Y-40995D01*
X47825Y-40995D02*
X46500Y-39670D01*
X52125Y-48125D02*
X52425Y-47825D01*
X49750Y-48125D02*
X52125Y-48125D01*
X48625Y-49250D02*
X48550Y-49250D01*
X48625Y-49250D02*
X49750Y-48125D01*
X52425Y-47825D02*
X53175Y-47825D01*
X55000Y-47750D02*
X54834Y-47750D01*
X54834Y-47750D02*
X54792Y-47707D01*
X54625Y-46500D02*
X54625Y-47164D01*
X54625Y-47164D02*
X54627Y-47167D01*
X54792Y-47707D02*
X54627Y-47543D01*
X54627Y-47543D02*
X54627Y-47167D01*
X54627Y-47377D02*
X54627Y-47167D01*
X55000Y-47750D02*
X54883Y-47633D01*
X54883Y-47633D02*
X54883Y-47167D01*
X54375Y-46250D02*
X54625Y-46500D01*
X54375Y-46250D02*
X54250Y-46250D01*
X54625Y-46500D02*
X54883Y-46758D01*
X53092Y-44332D02*
X53092Y-44967D01*
X54000Y-45250D02*
X53375Y-45250D01*
X53375Y-45250D02*
X53092Y-44967D01*
X54883Y-46758D02*
X54883Y-47167D01*
X52750Y-42500D02*
X53092Y-42842D01*
X53092Y-42842D02*
X53092Y-44332D01*
X61325Y-41500D02*
X61325Y-42075D01*
X61500Y-42250D02*
X61500Y-43100D01*
X61325Y-42075D02*
X61500Y-42250D01*
X46732Y-47488D02*
X47261Y-47488D01*
X47261Y-47488D02*
X47750Y-47000D01*
X49125Y-42125D02*
X49125Y-41250D01*
X48425Y-41250D02*
X49125Y-41250D01*
X48750Y-42562D02*
X49250Y-42562D01*
X48750Y-42562D02*
X48750Y-42875D01*
X49250Y-42875D02*
X49250Y-42562D01*
X49125Y-43000D02*
X49250Y-42875D01*
X48875Y-43000D02*
X49125Y-43000D01*
X48750Y-42875D02*
X48875Y-43000D01*
X49250Y-42250D02*
X49250Y-42562D01*
X48750Y-42562D02*
X48750Y-42250D01*
X49125Y-42125D02*
X49250Y-42250D01*
X48875Y-42125D02*
X49000Y-42125D01*
X49000Y-42125D02*
X49125Y-42125D01*
X48750Y-42250D02*
X48875Y-42125D01*
X47750Y-43375D02*
X48562Y-42562D01*
X47750Y-45000D02*
X47750Y-43375D01*
X48562Y-42562D02*
X48750Y-42562D01*
X47750Y-47000D02*
X47750Y-45000D01*
X49250Y-42500D02*
X49250Y-42250D01*
X47750Y-47000D02*
X47950Y-47000D01*
X46500Y-45000D02*
X47750Y-45000D01*
X46732Y-47744D02*
X47944Y-47744D01*
X47944Y-47744D02*
X47950Y-47750D01*
X46653Y-47744D02*
X46244Y-47744D01*
X46294Y-45919D02*
X46275Y-45900D01*
X46275Y-45900D02*
X46000Y-45625D01*
X46000Y-45625D02*
X46000Y-44500D01*
X46000Y-44500D02*
X46500Y-44000D01*
X46294Y-46781D02*
X46294Y-45919D01*
X46250Y-46825D02*
X46294Y-46781D01*
X46250Y-46925D02*
X46250Y-46825D01*
X46150Y-47025D02*
X46250Y-46925D01*
X46150Y-47650D02*
X46150Y-47025D01*
X46244Y-47744D02*
X46150Y-47650D01*
X57500Y-44400D02*
X57432Y-44332D01*
X57432Y-44332D02*
X56163Y-44332D01*
X57450Y-44350D02*
X57500Y-44400D01*
X61875Y-49525D02*
X60775Y-49525D01*
X60775Y-49525D02*
X59375Y-48125D01*
X59375Y-48125D02*
X56000Y-48125D01*
X56000Y-48125D02*
X55651Y-47776D01*
X55651Y-47776D02*
X55651Y-47167D01*
X60625Y-47875D02*
X56125Y-47875D01*
X61500Y-46125D02*
X61000Y-46625D01*
X61000Y-46625D02*
X61000Y-47500D01*
X61500Y-44400D02*
X61500Y-46125D01*
X61000Y-47500D02*
X60625Y-47875D01*
X55907Y-47657D02*
X55907Y-47167D01*
X56125Y-47875D02*
X55907Y-47657D01*
X63750Y-44812D02*
X63750Y-45500D01*
X64250Y-42687D02*
X64250Y-43500D01*
X63750Y-44000D02*
X63750Y-44812D01*
X64250Y-43500D02*
X63750Y-44000D01*
X59750Y-44812D02*
X59750Y-45500D01*
X60250Y-42687D02*
X60250Y-43500D01*
X59750Y-44000D02*
X59750Y-44812D01*
X60250Y-43500D02*
X59750Y-44000D01*
X56163Y-47167D02*
X56582Y-47167D01*
X56582Y-47167D02*
X56625Y-47125D01*
X56600Y-47150D02*
X56625Y-47125D01*
X52000Y-47750D02*
X52582Y-47167D01*
X49250Y-48000D02*
X48750Y-48500D01*
X48550Y-48500D02*
X48750Y-48500D01*
X49500Y-47750D02*
X49250Y-48000D01*
X52000Y-47750D02*
X49500Y-47750D01*
X52582Y-47167D02*
X52836Y-47167D01*
X53000Y-46500D02*
X53092Y-46592D01*
X48550Y-47750D02*
X48750Y-47750D01*
X52750Y-46500D02*
X53000Y-46500D01*
X51875Y-47375D02*
X52750Y-46500D01*
X49125Y-47375D02*
X48750Y-47750D01*
X51875Y-47375D02*
X49125Y-47375D01*
X53092Y-46592D02*
X53092Y-47167D01*
X62500Y-46000D02*
X62500Y-45625D01*
X62750Y-45375D02*
X62750Y-44812D01*
X62500Y-45625D02*
X62750Y-45375D01*
X62575Y-47125D02*
X61925Y-47125D01*
X62575Y-47125D02*
X62575Y-46700D01*
X62500Y-46625D02*
X62500Y-46000D01*
X62575Y-46700D02*
X62500Y-46625D01*
X54250Y-43500D02*
X54116Y-43633D01*
X54116Y-43633D02*
X54116Y-44332D01*
X55250Y-42500D02*
X55139Y-42610D01*
X55139Y-42610D02*
X55139Y-44332D01*
X55500Y-43125D02*
X55651Y-43276D01*
X55651Y-43276D02*
X55651Y-44332D01*
X63250Y-44812D02*
X63250Y-46000D01*
X63250Y-46000D02*
X64075Y-46000D01*
X52450Y-41200D02*
X53860Y-42610D01*
X52450Y-40000D02*
X52450Y-41200D01*
X53860Y-42610D02*
X53860Y-44332D01*
X52450Y-40000D02*
X52450Y-38427D01*
X52450Y-38427D02*
X52500Y-38377D01*
X51000Y-40000D02*
X51000Y-39100D01*
X54022Y-37900D02*
X54500Y-38377D01*
X52200Y-37900D02*
X54022Y-37900D01*
X52200Y-37900D02*
X51000Y-39100D01*
X54625Y-40000D02*
X54625Y-39250D01*
X54500Y-39125D02*
X54500Y-38377D01*
X54625Y-39250D02*
X54500Y-39125D01*
X49500Y-40000D02*
X49500Y-38377D01*
X49500Y-40000D02*
X49500Y-42000D01*
G54D34*
X49500Y-42000D02*
X49500Y-43125D01*
G54D33*
X48125Y-44500D02*
X49500Y-43125D01*
X48550Y-46925D02*
X48550Y-47000D01*
X48550Y-46925D02*
X48125Y-46500D01*
X48125Y-44500D02*
X48125Y-46500D01*
X49125Y-40000D02*
X49500Y-40000D01*
X49500Y-40000D02*
X50250Y-40000D01*
X53250Y-46250D02*
X53348Y-46348D01*
X51875Y-46875D02*
X52000Y-46750D01*
X52000Y-46750D02*
X52500Y-46250D01*
X52500Y-46250D02*
X53250Y-46250D01*
X51500Y-46875D02*
X51875Y-46875D01*
X53348Y-46348D02*
X53348Y-47167D01*
X48550Y-47000D02*
X50625Y-47000D01*
X50625Y-47000D02*
X50750Y-46875D01*
X50750Y-46875D02*
X51500Y-46875D01*
X54001Y-41500D02*
X54627Y-42125D01*
X54627Y-42125D02*
X54627Y-44332D01*
X54001Y-41500D02*
X54001Y-40873D01*
X55450Y-40550D02*
X55450Y-40125D01*
X55250Y-40750D02*
X55450Y-40550D01*
X54125Y-40750D02*
X55250Y-40750D01*
X54001Y-40873D02*
X54125Y-40750D01*
X54001Y-41500D02*
X53750Y-41500D01*
X53750Y-41500D02*
X53250Y-41000D01*
X54001Y-41751D02*
X54001Y-41500D01*
X56625Y-41500D02*
X55498Y-41500D01*
X55498Y-41500D02*
X54883Y-42114D01*
X54883Y-42114D02*
X54883Y-44332D01*
X55498Y-41500D02*
X55498Y-41126D01*
X56050Y-40575D02*
X56050Y-40125D01*
X55498Y-41126D02*
X56050Y-40575D01*
X57500Y-47025D02*
X57500Y-47125D01*
X60675Y-47325D02*
X60675Y-47125D01*
X60361Y-47638D02*
X60675Y-47325D01*
X58013Y-47638D02*
X60361Y-47638D01*
X57500Y-47125D02*
X58013Y-47638D01*
X57325Y-40075D02*
X57325Y-40375D01*
X57250Y-40000D02*
X57325Y-40075D01*
X57750Y-39875D02*
X60500Y-39875D01*
X60500Y-39875D02*
X60675Y-40050D01*
X60675Y-40375D02*
X60675Y-40050D01*
X57625Y-40000D02*
X57750Y-39875D01*
X57500Y-42500D02*
X57500Y-43100D01*
X57500Y-42500D02*
X57625Y-42375D01*
X57625Y-42375D02*
X57625Y-40000D01*
G54D10*
G36*
X47481Y-46888D02*
X47150Y-47219D01*
X47096Y-47219D01*
X47077Y-47219D01*
X47125Y-47082D01*
X47113Y-46889D01*
X47062Y-46766D01*
X46973Y-46746D01*
X46704Y-47015D01*
X46710Y-47021D01*
X46639Y-47092D01*
X46633Y-47086D01*
X46628Y-47092D01*
X46557Y-47021D01*
X46563Y-47015D01*
X46557Y-47010D01*
X46628Y-46939D01*
X46633Y-46945D01*
X46902Y-46676D01*
X46883Y-46587D01*
X46700Y-46524D01*
X46562Y-46532D01*
X46562Y-45919D01*
X46562Y-45918D01*
X46542Y-45816D01*
X46484Y-45728D01*
X46484Y-45728D01*
X46465Y-45709D01*
X46268Y-45513D01*
X46268Y-45490D01*
X46837Y-45490D01*
X46907Y-45461D01*
X46960Y-45407D01*
X46989Y-45337D01*
X46990Y-45268D01*
X47481Y-45268D01*
X47481Y-46888D01*
X47481Y-46888D01*
G37*
G54D35*
X47481Y-46888D02*
X47150Y-47219D01*
X47096Y-47219D01*
X47077Y-47219D01*
X47125Y-47082D01*
X47113Y-46889D01*
X47062Y-46766D01*
X46973Y-46746D01*
X46704Y-47015D01*
X46710Y-47021D01*
X46639Y-47092D01*
X46633Y-47086D01*
X46628Y-47092D01*
X46557Y-47021D01*
X46563Y-47015D01*
X46557Y-47010D01*
X46628Y-46939D01*
X46633Y-46945D01*
X46902Y-46676D01*
X46883Y-46587D01*
X46700Y-46524D01*
X46562Y-46532D01*
X46562Y-45919D01*
X46562Y-45918D01*
X46542Y-45816D01*
X46484Y-45728D01*
X46484Y-45728D01*
X46465Y-45709D01*
X46268Y-45513D01*
X46268Y-45490D01*
X46837Y-45490D01*
X46907Y-45461D01*
X46960Y-45407D01*
X46989Y-45337D01*
X46990Y-45268D01*
X47481Y-45268D01*
X47481Y-46888D01*
G54D10*
G36*
X51622Y-43502D02*
X51226Y-43502D01*
X51156Y-43531D01*
X51102Y-43585D01*
X51073Y-43654D01*
X51073Y-43730D01*
X51073Y-43796D01*
X50809Y-44059D01*
X50751Y-44147D01*
X50731Y-44250D01*
X50731Y-45527D01*
X50724Y-45524D01*
X50662Y-45525D01*
X50608Y-45579D01*
X50608Y-44933D01*
X50608Y-44442D01*
X50608Y-44342D01*
X50570Y-44250D01*
X50499Y-44180D01*
X50407Y-44142D01*
X50362Y-44142D01*
X50300Y-44205D01*
X50300Y-44637D01*
X50545Y-44637D01*
X50608Y-44575D01*
X50608Y-44442D01*
X50608Y-44933D01*
X50608Y-44800D01*
X50545Y-44737D01*
X50300Y-44737D01*
X50300Y-45170D01*
X50362Y-45233D01*
X50407Y-45233D01*
X50499Y-45195D01*
X50570Y-45125D01*
X50608Y-45033D01*
X50608Y-44933D01*
X50608Y-45579D01*
X50600Y-45587D01*
X50600Y-45950D01*
X50607Y-45950D01*
X50607Y-46050D01*
X50600Y-46050D01*
X50600Y-46057D01*
X50500Y-46057D01*
X50500Y-46050D01*
X50492Y-46050D01*
X50492Y-45950D01*
X50500Y-45950D01*
X50500Y-45587D01*
X50437Y-45525D01*
X50375Y-45524D01*
X50364Y-45529D01*
X50365Y-45427D01*
X50309Y-45293D01*
X50250Y-45233D01*
X50250Y-44103D01*
X50360Y-43993D01*
X50440Y-43940D01*
X50498Y-43852D01*
X50518Y-43750D01*
X50518Y-42965D01*
X50519Y-42965D01*
X50548Y-42895D01*
X50548Y-42830D01*
X50950Y-42830D01*
X51622Y-43502D01*
X51622Y-43502D01*
G37*
G54D35*
X51622Y-43502D02*
X51226Y-43502D01*
X51156Y-43531D01*
X51102Y-43585D01*
X51073Y-43654D01*
X51073Y-43730D01*
X51073Y-43796D01*
X50809Y-44059D01*
X50751Y-44147D01*
X50731Y-44250D01*
X50731Y-45527D01*
X50724Y-45524D01*
X50662Y-45525D01*
X50608Y-45579D01*
X50608Y-44933D01*
X50608Y-44442D01*
X50608Y-44342D01*
X50570Y-44250D01*
X50499Y-44180D01*
X50407Y-44142D01*
X50362Y-44142D01*
X50300Y-44205D01*
X50300Y-44637D01*
X50545Y-44637D01*
X50608Y-44575D01*
X50608Y-44442D01*
X50608Y-44933D01*
X50608Y-44800D01*
X50545Y-44737D01*
X50300Y-44737D01*
X50300Y-45170D01*
X50362Y-45233D01*
X50407Y-45233D01*
X50499Y-45195D01*
X50570Y-45125D01*
X50608Y-45033D01*
X50608Y-44933D01*
X50608Y-45579D01*
X50600Y-45587D01*
X50600Y-45950D01*
X50607Y-45950D01*
X50607Y-46050D01*
X50600Y-46050D01*
X50600Y-46057D01*
X50500Y-46057D01*
X50500Y-46050D01*
X50492Y-46050D01*
X50492Y-45950D01*
X50500Y-45950D01*
X50500Y-45587D01*
X50437Y-45525D01*
X50375Y-45524D01*
X50364Y-45529D01*
X50365Y-45427D01*
X50309Y-45293D01*
X50250Y-45233D01*
X50250Y-44103D01*
X50360Y-43993D01*
X50440Y-43940D01*
X50498Y-43852D01*
X50518Y-43750D01*
X50518Y-42965D01*
X50519Y-42965D01*
X50548Y-42895D01*
X50548Y-42830D01*
X50950Y-42830D01*
X51622Y-43502D01*
G54D10*
G36*
X52181Y-41054D02*
X52102Y-41001D01*
X52000Y-40981D01*
X51111Y-40981D01*
X50893Y-40763D01*
X50893Y-40465D01*
X51212Y-40465D01*
X51282Y-40436D01*
X51335Y-40382D01*
X51364Y-40312D01*
X51365Y-40237D01*
X51365Y-39687D01*
X51336Y-39617D01*
X51282Y-39564D01*
X51268Y-39558D01*
X51268Y-39211D01*
X52014Y-38465D01*
X52014Y-38474D01*
X52088Y-38652D01*
X52181Y-38745D01*
X52181Y-39650D01*
X52164Y-39667D01*
X52135Y-39737D01*
X52134Y-39812D01*
X52134Y-40262D01*
X52163Y-40332D01*
X52181Y-40349D01*
X52181Y-41054D01*
X52181Y-41054D01*
G37*
G54D35*
X52181Y-41054D02*
X52102Y-41001D01*
X52000Y-40981D01*
X51111Y-40981D01*
X50893Y-40763D01*
X50893Y-40465D01*
X51212Y-40465D01*
X51282Y-40436D01*
X51335Y-40382D01*
X51364Y-40312D01*
X51365Y-40237D01*
X51365Y-39687D01*
X51336Y-39617D01*
X51282Y-39564D01*
X51268Y-39558D01*
X51268Y-39211D01*
X52014Y-38465D01*
X52014Y-38474D01*
X52088Y-38652D01*
X52181Y-38745D01*
X52181Y-39650D01*
X52164Y-39667D01*
X52135Y-39737D01*
X52134Y-39812D01*
X52134Y-40262D01*
X52163Y-40332D01*
X52181Y-40349D01*
X52181Y-41054D01*
G54D10*
G36*
X52701Y-45981D02*
X52500Y-45981D01*
X52397Y-46001D01*
X52309Y-46059D01*
X52025Y-46344D01*
X52025Y-45900D01*
X51987Y-45808D01*
X51916Y-45738D01*
X51824Y-45700D01*
X51725Y-45699D01*
X51612Y-45700D01*
X51550Y-45762D01*
X51550Y-46075D01*
X51962Y-46075D01*
X52025Y-46012D01*
X52025Y-45900D01*
X52025Y-46344D01*
X52025Y-46344D01*
X52025Y-46237D01*
X51962Y-46175D01*
X51550Y-46175D01*
X51550Y-46182D01*
X51450Y-46182D01*
X51450Y-46175D01*
X51442Y-46175D01*
X51442Y-46075D01*
X51450Y-46075D01*
X51450Y-45762D01*
X51387Y-45700D01*
X51274Y-45699D01*
X51268Y-45699D01*
X51268Y-45497D01*
X51301Y-45497D01*
X51773Y-45497D01*
X51843Y-45468D01*
X51897Y-45414D01*
X51926Y-45345D01*
X51926Y-45342D01*
X51967Y-45384D01*
X52102Y-45439D01*
X52159Y-45439D01*
X52701Y-45981D01*
X52701Y-45981D01*
G37*
G54D35*
X52701Y-45981D02*
X52500Y-45981D01*
X52397Y-46001D01*
X52309Y-46059D01*
X52025Y-46344D01*
X52025Y-45900D01*
X51987Y-45808D01*
X51916Y-45738D01*
X51824Y-45700D01*
X51725Y-45699D01*
X51612Y-45700D01*
X51550Y-45762D01*
X51550Y-46075D01*
X51962Y-46075D01*
X52025Y-46012D01*
X52025Y-45900D01*
X52025Y-46344D01*
X52025Y-46344D01*
X52025Y-46237D01*
X51962Y-46175D01*
X51550Y-46175D01*
X51550Y-46182D01*
X51450Y-46182D01*
X51450Y-46175D01*
X51442Y-46175D01*
X51442Y-46075D01*
X51450Y-46075D01*
X51450Y-45762D01*
X51387Y-45700D01*
X51274Y-45699D01*
X51268Y-45699D01*
X51268Y-45497D01*
X51301Y-45497D01*
X51773Y-45497D01*
X51843Y-45468D01*
X51897Y-45414D01*
X51926Y-45345D01*
X51926Y-45342D01*
X51967Y-45384D01*
X52102Y-45439D01*
X52159Y-45439D01*
X52701Y-45981D01*
G54D10*
G36*
X52823Y-43807D02*
X52720Y-43807D01*
X52697Y-43817D01*
X51252Y-42371D01*
X51164Y-42313D01*
X51062Y-42293D01*
X50548Y-42293D01*
X50548Y-42229D01*
X50519Y-42159D01*
X50466Y-42105D01*
X50396Y-42076D01*
X50320Y-42076D01*
X50300Y-42076D01*
X50300Y-41475D01*
X50300Y-41024D01*
X50299Y-40925D01*
X50261Y-40833D01*
X50191Y-40762D01*
X50099Y-40724D01*
X49987Y-40725D01*
X49925Y-40787D01*
X49925Y-41200D01*
X50237Y-41200D01*
X50300Y-41137D01*
X50300Y-41024D01*
X50300Y-41475D01*
X50300Y-41362D01*
X50237Y-41300D01*
X49925Y-41300D01*
X49925Y-41712D01*
X49987Y-41775D01*
X50099Y-41775D01*
X50191Y-41737D01*
X50261Y-41666D01*
X50299Y-41574D01*
X50300Y-41475D01*
X50300Y-42076D01*
X50104Y-42076D01*
X50034Y-42105D01*
X49999Y-42139D01*
X49966Y-42105D01*
X49896Y-42076D01*
X49820Y-42076D01*
X49753Y-42076D01*
X49768Y-42000D01*
X49768Y-41768D01*
X49825Y-41712D01*
X49825Y-41300D01*
X49817Y-41300D01*
X49817Y-41200D01*
X49825Y-41200D01*
X49825Y-40787D01*
X49768Y-40731D01*
X49768Y-40268D01*
X49884Y-40268D01*
X49884Y-40312D01*
X49913Y-40382D01*
X49967Y-40435D01*
X50037Y-40464D01*
X50112Y-40465D01*
X50356Y-40465D01*
X50356Y-40875D01*
X50376Y-40977D01*
X50434Y-41065D01*
X50809Y-41440D01*
X50897Y-41498D01*
X51000Y-41518D01*
X51888Y-41518D01*
X52555Y-42185D01*
X52543Y-42190D01*
X52440Y-42292D01*
X52385Y-42427D01*
X52384Y-42572D01*
X52440Y-42706D01*
X52542Y-42809D01*
X52677Y-42864D01*
X52734Y-42864D01*
X52823Y-42953D01*
X52823Y-43807D01*
X52823Y-43807D01*
G37*
G54D35*
X52823Y-43807D02*
X52720Y-43807D01*
X52697Y-43817D01*
X51252Y-42371D01*
X51164Y-42313D01*
X51062Y-42293D01*
X50548Y-42293D01*
X50548Y-42229D01*
X50519Y-42159D01*
X50466Y-42105D01*
X50396Y-42076D01*
X50320Y-42076D01*
X50300Y-42076D01*
X50300Y-41475D01*
X50300Y-41024D01*
X50299Y-40925D01*
X50261Y-40833D01*
X50191Y-40762D01*
X50099Y-40724D01*
X49987Y-40725D01*
X49925Y-40787D01*
X49925Y-41200D01*
X50237Y-41200D01*
X50300Y-41137D01*
X50300Y-41024D01*
X50300Y-41475D01*
X50300Y-41362D01*
X50237Y-41300D01*
X49925Y-41300D01*
X49925Y-41712D01*
X49987Y-41775D01*
X50099Y-41775D01*
X50191Y-41737D01*
X50261Y-41666D01*
X50299Y-41574D01*
X50300Y-41475D01*
X50300Y-42076D01*
X50104Y-42076D01*
X50034Y-42105D01*
X49999Y-42139D01*
X49966Y-42105D01*
X49896Y-42076D01*
X49820Y-42076D01*
X49753Y-42076D01*
X49768Y-42000D01*
X49768Y-41768D01*
X49825Y-41712D01*
X49825Y-41300D01*
X49817Y-41300D01*
X49817Y-41200D01*
X49825Y-41200D01*
X49825Y-40787D01*
X49768Y-40731D01*
X49768Y-40268D01*
X49884Y-40268D01*
X49884Y-40312D01*
X49913Y-40382D01*
X49967Y-40435D01*
X50037Y-40464D01*
X50112Y-40465D01*
X50356Y-40465D01*
X50356Y-40875D01*
X50376Y-40977D01*
X50434Y-41065D01*
X50809Y-41440D01*
X50897Y-41498D01*
X51000Y-41518D01*
X51888Y-41518D01*
X52555Y-42185D01*
X52543Y-42190D01*
X52440Y-42292D01*
X52385Y-42427D01*
X52384Y-42572D01*
X52440Y-42706D01*
X52542Y-42809D01*
X52677Y-42864D01*
X52734Y-42864D01*
X52823Y-42953D01*
X52823Y-43807D01*
G54D10*
G36*
X54356Y-39558D02*
X54342Y-39563D01*
X54289Y-39617D01*
X54282Y-39632D01*
X54261Y-39583D01*
X54191Y-39512D01*
X54099Y-39474D01*
X53987Y-39475D01*
X53925Y-39537D01*
X53925Y-39950D01*
X53932Y-39950D01*
X53932Y-40050D01*
X53925Y-40050D01*
X53925Y-40462D01*
X53987Y-40524D01*
X53934Y-40559D01*
X53825Y-40669D01*
X53825Y-40462D01*
X53825Y-40050D01*
X53825Y-39950D01*
X53825Y-39537D01*
X53811Y-39524D01*
X53811Y-38760D01*
X53500Y-38448D01*
X53188Y-38760D01*
X53214Y-38855D01*
X53419Y-38928D01*
X53636Y-38917D01*
X53785Y-38855D01*
X53811Y-38760D01*
X53811Y-39524D01*
X53762Y-39475D01*
X53650Y-39474D01*
X53558Y-39512D01*
X53488Y-39583D01*
X53450Y-39675D01*
X53449Y-39774D01*
X53450Y-39887D01*
X53512Y-39950D01*
X53825Y-39950D01*
X53825Y-40050D01*
X53512Y-40050D01*
X53450Y-40112D01*
X53449Y-40225D01*
X53450Y-40324D01*
X53488Y-40416D01*
X53558Y-40487D01*
X53650Y-40525D01*
X53762Y-40525D01*
X53825Y-40462D01*
X53825Y-40669D01*
X53811Y-40683D01*
X53753Y-40770D01*
X53740Y-40837D01*
X53610Y-40837D01*
X53582Y-40848D01*
X53559Y-40793D01*
X53457Y-40690D01*
X53425Y-40677D01*
X53425Y-40175D01*
X53425Y-39824D01*
X53424Y-39725D01*
X53386Y-39633D01*
X53316Y-39562D01*
X53224Y-39524D01*
X53162Y-39525D01*
X53100Y-39587D01*
X53100Y-39950D01*
X53362Y-39950D01*
X53425Y-39887D01*
X53425Y-39824D01*
X53425Y-40175D01*
X53425Y-40112D01*
X53362Y-40050D01*
X53100Y-40050D01*
X53100Y-40412D01*
X53162Y-40475D01*
X53224Y-40475D01*
X53316Y-40437D01*
X53386Y-40366D01*
X53424Y-40274D01*
X53425Y-40175D01*
X53425Y-40677D01*
X53322Y-40635D01*
X53177Y-40634D01*
X53043Y-40690D01*
X52940Y-40792D01*
X52885Y-40927D01*
X52884Y-41072D01*
X52940Y-41206D01*
X53042Y-41309D01*
X53177Y-41364D01*
X53234Y-41364D01*
X53457Y-41587D01*
X53457Y-41827D01*
X52718Y-41088D01*
X52718Y-40372D01*
X52783Y-40437D01*
X52875Y-40475D01*
X52937Y-40475D01*
X53000Y-40412D01*
X53000Y-40050D01*
X52992Y-40050D01*
X52992Y-39950D01*
X53000Y-39950D01*
X53000Y-39587D01*
X52937Y-39525D01*
X52875Y-39524D01*
X52783Y-39562D01*
X52718Y-39627D01*
X52718Y-38812D01*
X52774Y-38789D01*
X52911Y-38653D01*
X52964Y-38523D01*
X53022Y-38662D01*
X53117Y-38689D01*
X53429Y-38377D01*
X53423Y-38372D01*
X53494Y-38301D01*
X53500Y-38307D01*
X53505Y-38301D01*
X53576Y-38372D01*
X53570Y-38377D01*
X53882Y-38689D01*
X53977Y-38662D01*
X54030Y-38512D01*
X54088Y-38652D01*
X54224Y-38789D01*
X54231Y-38791D01*
X54231Y-39125D01*
X54251Y-39227D01*
X54309Y-39315D01*
X54356Y-39361D01*
X54356Y-39558D01*
X54356Y-39558D01*
G37*
G54D35*
X54356Y-39558D02*
X54342Y-39563D01*
X54289Y-39617D01*
X54282Y-39632D01*
X54261Y-39583D01*
X54191Y-39512D01*
X54099Y-39474D01*
X53987Y-39475D01*
X53925Y-39537D01*
X53925Y-39950D01*
X53932Y-39950D01*
X53932Y-40050D01*
X53925Y-40050D01*
X53925Y-40462D01*
X53987Y-40524D01*
X53934Y-40559D01*
X53825Y-40669D01*
X53825Y-40462D01*
X53825Y-40050D01*
X53825Y-39950D01*
X53825Y-39537D01*
X53811Y-39524D01*
X53811Y-38760D01*
X53500Y-38448D01*
X53188Y-38760D01*
X53214Y-38855D01*
X53419Y-38928D01*
X53636Y-38917D01*
X53785Y-38855D01*
X53811Y-38760D01*
X53811Y-39524D01*
X53762Y-39475D01*
X53650Y-39474D01*
X53558Y-39512D01*
X53488Y-39583D01*
X53450Y-39675D01*
X53449Y-39774D01*
X53450Y-39887D01*
X53512Y-39950D01*
X53825Y-39950D01*
X53825Y-40050D01*
X53512Y-40050D01*
X53450Y-40112D01*
X53449Y-40225D01*
X53450Y-40324D01*
X53488Y-40416D01*
X53558Y-40487D01*
X53650Y-40525D01*
X53762Y-40525D01*
X53825Y-40462D01*
X53825Y-40669D01*
X53811Y-40683D01*
X53753Y-40770D01*
X53740Y-40837D01*
X53610Y-40837D01*
X53582Y-40848D01*
X53559Y-40793D01*
X53457Y-40690D01*
X53425Y-40677D01*
X53425Y-40175D01*
X53425Y-39824D01*
X53424Y-39725D01*
X53386Y-39633D01*
X53316Y-39562D01*
X53224Y-39524D01*
X53162Y-39525D01*
X53100Y-39587D01*
X53100Y-39950D01*
X53362Y-39950D01*
X53425Y-39887D01*
X53425Y-39824D01*
X53425Y-40175D01*
X53425Y-40112D01*
X53362Y-40050D01*
X53100Y-40050D01*
X53100Y-40412D01*
X53162Y-40475D01*
X53224Y-40475D01*
X53316Y-40437D01*
X53386Y-40366D01*
X53424Y-40274D01*
X53425Y-40175D01*
X53425Y-40677D01*
X53322Y-40635D01*
X53177Y-40634D01*
X53043Y-40690D01*
X52940Y-40792D01*
X52885Y-40927D01*
X52884Y-41072D01*
X52940Y-41206D01*
X53042Y-41309D01*
X53177Y-41364D01*
X53234Y-41364D01*
X53457Y-41587D01*
X53457Y-41827D01*
X52718Y-41088D01*
X52718Y-40372D01*
X52783Y-40437D01*
X52875Y-40475D01*
X52937Y-40475D01*
X53000Y-40412D01*
X53000Y-40050D01*
X52992Y-40050D01*
X52992Y-39950D01*
X53000Y-39950D01*
X53000Y-39587D01*
X52937Y-39525D01*
X52875Y-39524D01*
X52783Y-39562D01*
X52718Y-39627D01*
X52718Y-38812D01*
X52774Y-38789D01*
X52911Y-38653D01*
X52964Y-38523D01*
X53022Y-38662D01*
X53117Y-38689D01*
X53429Y-38377D01*
X53423Y-38372D01*
X53494Y-38301D01*
X53500Y-38307D01*
X53505Y-38301D01*
X53576Y-38372D01*
X53570Y-38377D01*
X53882Y-38689D01*
X53977Y-38662D01*
X54030Y-38512D01*
X54088Y-38652D01*
X54224Y-38789D01*
X54231Y-38791D01*
X54231Y-39125D01*
X54251Y-39227D01*
X54309Y-39315D01*
X54356Y-39361D01*
X54356Y-39558D01*
G54D10*
G36*
X54356Y-46642D02*
X54255Y-46642D01*
X54244Y-46647D01*
X54232Y-46642D01*
X54157Y-46642D01*
X53999Y-46642D01*
X53988Y-46647D01*
X53976Y-46642D01*
X53901Y-46642D01*
X53846Y-46642D01*
X53824Y-46620D01*
X53732Y-46582D01*
X53706Y-46582D01*
X53654Y-46634D01*
X53654Y-46582D01*
X53617Y-46582D01*
X53617Y-46348D01*
X53596Y-46245D01*
X53538Y-46158D01*
X53523Y-46143D01*
X53898Y-46143D01*
X53885Y-46177D01*
X53884Y-46322D01*
X53940Y-46456D01*
X54042Y-46559D01*
X54177Y-46614D01*
X54322Y-46615D01*
X54348Y-46604D01*
X54356Y-46611D01*
X54356Y-46642D01*
X54356Y-46642D01*
G37*
G54D35*
X54356Y-46642D02*
X54255Y-46642D01*
X54244Y-46647D01*
X54232Y-46642D01*
X54157Y-46642D01*
X53999Y-46642D01*
X53988Y-46647D01*
X53976Y-46642D01*
X53901Y-46642D01*
X53846Y-46642D01*
X53824Y-46620D01*
X53732Y-46582D01*
X53706Y-46582D01*
X53654Y-46634D01*
X53654Y-46582D01*
X53617Y-46582D01*
X53617Y-46348D01*
X53596Y-46245D01*
X53538Y-46158D01*
X53523Y-46143D01*
X53898Y-46143D01*
X53885Y-46177D01*
X53884Y-46322D01*
X53940Y-46456D01*
X54042Y-46559D01*
X54177Y-46614D01*
X54322Y-46615D01*
X54348Y-46604D01*
X54356Y-46611D01*
X54356Y-46642D01*
G54D10*
G36*
X54953Y-41018D02*
X54953Y-41065D01*
X54953Y-41664D01*
X54750Y-41867D01*
X54546Y-41664D01*
X54546Y-41018D01*
X54953Y-41018D01*
X54953Y-41018D01*
G37*
G54D35*
X54953Y-41018D02*
X54953Y-41065D01*
X54953Y-41664D01*
X54750Y-41867D01*
X54546Y-41664D01*
X54546Y-41018D01*
X54953Y-41018D01*
G54D10*
G36*
X56787Y-45981D02*
X56361Y-45981D01*
X55815Y-45434D01*
X55727Y-45376D01*
X55625Y-45356D01*
X54351Y-45356D01*
X54364Y-45322D01*
X54365Y-45177D01*
X54309Y-45043D01*
X54207Y-44940D01*
X54072Y-44885D01*
X53927Y-44884D01*
X53793Y-44940D01*
X53752Y-44981D01*
X53486Y-44981D01*
X53398Y-44893D01*
X53398Y-44865D01*
X53450Y-44917D01*
X53476Y-44917D01*
X53568Y-44879D01*
X53590Y-44857D01*
X53720Y-44857D01*
X53732Y-44852D01*
X53743Y-44857D01*
X53819Y-44857D01*
X53976Y-44857D01*
X53988Y-44852D01*
X53999Y-44857D01*
X54075Y-44857D01*
X54129Y-44857D01*
X54151Y-44879D01*
X54243Y-44917D01*
X54270Y-44917D01*
X54332Y-44854D01*
X54332Y-44798D01*
X54355Y-44775D01*
X54372Y-44736D01*
X54388Y-44774D01*
X54411Y-44798D01*
X54411Y-44854D01*
X54473Y-44917D01*
X54500Y-44917D01*
X54592Y-44879D01*
X54614Y-44857D01*
X54744Y-44857D01*
X54755Y-44852D01*
X54767Y-44857D01*
X54842Y-44857D01*
X55000Y-44857D01*
X55011Y-44852D01*
X55023Y-44857D01*
X55098Y-44857D01*
X55153Y-44857D01*
X55175Y-44879D01*
X55267Y-44917D01*
X55293Y-44917D01*
X55356Y-44854D01*
X55356Y-44798D01*
X55379Y-44775D01*
X55395Y-44736D01*
X55411Y-44774D01*
X55435Y-44798D01*
X55435Y-44854D01*
X55497Y-44917D01*
X55523Y-44917D01*
X55615Y-44879D01*
X55637Y-44857D01*
X55653Y-44857D01*
X55659Y-44885D01*
X55717Y-44972D01*
X56659Y-45915D01*
X56747Y-45973D01*
X56787Y-45981D01*
X56787Y-45981D01*
G37*
G54D35*
X56787Y-45981D02*
X56361Y-45981D01*
X55815Y-45434D01*
X55727Y-45376D01*
X55625Y-45356D01*
X54351Y-45356D01*
X54364Y-45322D01*
X54365Y-45177D01*
X54309Y-45043D01*
X54207Y-44940D01*
X54072Y-44885D01*
X53927Y-44884D01*
X53793Y-44940D01*
X53752Y-44981D01*
X53486Y-44981D01*
X53398Y-44893D01*
X53398Y-44865D01*
X53450Y-44917D01*
X53476Y-44917D01*
X53568Y-44879D01*
X53590Y-44857D01*
X53720Y-44857D01*
X53732Y-44852D01*
X53743Y-44857D01*
X53819Y-44857D01*
X53976Y-44857D01*
X53988Y-44852D01*
X53999Y-44857D01*
X54075Y-44857D01*
X54129Y-44857D01*
X54151Y-44879D01*
X54243Y-44917D01*
X54270Y-44917D01*
X54332Y-44854D01*
X54332Y-44798D01*
X54355Y-44775D01*
X54372Y-44736D01*
X54388Y-44774D01*
X54411Y-44798D01*
X54411Y-44854D01*
X54473Y-44917D01*
X54500Y-44917D01*
X54592Y-44879D01*
X54614Y-44857D01*
X54744Y-44857D01*
X54755Y-44852D01*
X54767Y-44857D01*
X54842Y-44857D01*
X55000Y-44857D01*
X55011Y-44852D01*
X55023Y-44857D01*
X55098Y-44857D01*
X55153Y-44857D01*
X55175Y-44879D01*
X55267Y-44917D01*
X55293Y-44917D01*
X55356Y-44854D01*
X55356Y-44798D01*
X55379Y-44775D01*
X55395Y-44736D01*
X55411Y-44774D01*
X55435Y-44798D01*
X55435Y-44854D01*
X55497Y-44917D01*
X55523Y-44917D01*
X55615Y-44879D01*
X55637Y-44857D01*
X55653Y-44857D01*
X55659Y-44885D01*
X55717Y-44972D01*
X56659Y-45915D01*
X56747Y-45973D01*
X56787Y-45981D01*
G54D10*
G36*
X57856Y-43909D02*
X57062Y-43909D01*
X56992Y-43938D01*
X56939Y-43992D01*
X56910Y-44062D01*
X56910Y-44063D01*
X56432Y-44063D01*
X56432Y-43960D01*
X56403Y-43890D01*
X56349Y-43837D01*
X56280Y-43808D01*
X56204Y-43807D01*
X56047Y-43807D01*
X56035Y-43812D01*
X56024Y-43808D01*
X55948Y-43807D01*
X55920Y-43807D01*
X55920Y-43276D01*
X55899Y-43173D01*
X55865Y-43121D01*
X55865Y-43052D01*
X55809Y-42918D01*
X55707Y-42815D01*
X55572Y-42760D01*
X55506Y-42760D01*
X55559Y-42707D01*
X55614Y-42572D01*
X55615Y-42427D01*
X55559Y-42293D01*
X55457Y-42190D01*
X55388Y-42162D01*
X55889Y-42162D01*
X55959Y-42133D01*
X56013Y-42080D01*
X56042Y-42010D01*
X56042Y-41934D01*
X56042Y-41768D01*
X56377Y-41768D01*
X56417Y-41809D01*
X56552Y-41864D01*
X56697Y-41865D01*
X56831Y-41809D01*
X56934Y-41707D01*
X56972Y-41614D01*
X56984Y-41614D01*
X57009Y-41640D01*
X57009Y-41762D01*
X57038Y-41832D01*
X57092Y-41885D01*
X57162Y-41914D01*
X57237Y-41915D01*
X57356Y-41915D01*
X57356Y-42263D01*
X57309Y-42309D01*
X57251Y-42397D01*
X57231Y-42500D01*
X57231Y-42609D01*
X57062Y-42609D01*
X56992Y-42638D01*
X56939Y-42692D01*
X56910Y-42762D01*
X56909Y-42837D01*
X56909Y-43437D01*
X56938Y-43507D01*
X56992Y-43560D01*
X57062Y-43589D01*
X57137Y-43590D01*
X57856Y-43590D01*
X57856Y-43909D01*
X57856Y-43909D01*
G37*
G54D35*
X57856Y-43909D02*
X57062Y-43909D01*
X56992Y-43938D01*
X56939Y-43992D01*
X56910Y-44062D01*
X56910Y-44063D01*
X56432Y-44063D01*
X56432Y-43960D01*
X56403Y-43890D01*
X56349Y-43837D01*
X56280Y-43808D01*
X56204Y-43807D01*
X56047Y-43807D01*
X56035Y-43812D01*
X56024Y-43808D01*
X55948Y-43807D01*
X55920Y-43807D01*
X55920Y-43276D01*
X55899Y-43173D01*
X55865Y-43121D01*
X55865Y-43052D01*
X55809Y-42918D01*
X55707Y-42815D01*
X55572Y-42760D01*
X55506Y-42760D01*
X55559Y-42707D01*
X55614Y-42572D01*
X55615Y-42427D01*
X55559Y-42293D01*
X55457Y-42190D01*
X55388Y-42162D01*
X55889Y-42162D01*
X55959Y-42133D01*
X56013Y-42080D01*
X56042Y-42010D01*
X56042Y-41934D01*
X56042Y-41768D01*
X56377Y-41768D01*
X56417Y-41809D01*
X56552Y-41864D01*
X56697Y-41865D01*
X56831Y-41809D01*
X56934Y-41707D01*
X56972Y-41614D01*
X56984Y-41614D01*
X57009Y-41640D01*
X57009Y-41762D01*
X57038Y-41832D01*
X57092Y-41885D01*
X57162Y-41914D01*
X57237Y-41915D01*
X57356Y-41915D01*
X57356Y-42263D01*
X57309Y-42309D01*
X57251Y-42397D01*
X57231Y-42500D01*
X57231Y-42609D01*
X57062Y-42609D01*
X56992Y-42638D01*
X56939Y-42692D01*
X56910Y-42762D01*
X56909Y-42837D01*
X56909Y-43437D01*
X56938Y-43507D01*
X56992Y-43560D01*
X57062Y-43589D01*
X57137Y-43590D01*
X57856Y-43590D01*
X57856Y-43909D01*
G54D10*
G36*
X57856Y-45234D02*
X57062Y-45234D01*
X56992Y-45263D01*
X56939Y-45317D01*
X56910Y-45387D01*
X56910Y-45404D01*
X56338Y-44833D01*
X56349Y-44828D01*
X56403Y-44775D01*
X56432Y-44705D01*
X56432Y-44629D01*
X56432Y-44601D01*
X56909Y-44601D01*
X56909Y-44737D01*
X56938Y-44807D01*
X56992Y-44860D01*
X57062Y-44889D01*
X57137Y-44890D01*
X57856Y-44890D01*
X57856Y-45000D01*
X57856Y-45234D01*
X57856Y-45234D01*
G37*
G54D35*
X57856Y-45234D02*
X57062Y-45234D01*
X56992Y-45263D01*
X56939Y-45317D01*
X56910Y-45387D01*
X56910Y-45404D01*
X56338Y-44833D01*
X56349Y-44828D01*
X56403Y-44775D01*
X56432Y-44705D01*
X56432Y-44629D01*
X56432Y-44601D01*
X56909Y-44601D01*
X56909Y-44737D01*
X56938Y-44807D01*
X56992Y-44860D01*
X57062Y-44889D01*
X57137Y-44890D01*
X57856Y-44890D01*
X57856Y-45000D01*
X57856Y-45234D01*
G54D10*
G36*
X58292Y-46788D02*
X58289Y-46792D01*
X58260Y-46862D01*
X58259Y-46937D01*
X58259Y-47370D01*
X58125Y-47370D01*
X58089Y-47334D01*
X58090Y-47287D01*
X58090Y-46687D01*
X58061Y-46617D01*
X58007Y-46564D01*
X57937Y-46535D01*
X57862Y-46534D01*
X57062Y-46534D01*
X56992Y-46563D01*
X56939Y-46617D01*
X56910Y-46687D01*
X56909Y-46762D01*
X56909Y-46893D01*
X56832Y-46815D01*
X56697Y-46760D01*
X56552Y-46759D01*
X56432Y-46809D01*
X56432Y-46795D01*
X56403Y-46725D01*
X56349Y-46671D01*
X56280Y-46642D01*
X56204Y-46642D01*
X56047Y-46642D01*
X56035Y-46647D01*
X56024Y-46642D01*
X55948Y-46642D01*
X55791Y-46642D01*
X55779Y-46647D01*
X55768Y-46642D01*
X55692Y-46642D01*
X55637Y-46642D01*
X55615Y-46620D01*
X55523Y-46582D01*
X55497Y-46582D01*
X55445Y-46634D01*
X55445Y-46582D01*
X55397Y-46582D01*
X55388Y-46536D01*
X55329Y-46449D01*
X55329Y-46449D01*
X54773Y-45893D01*
X55513Y-45893D01*
X56059Y-46440D01*
X56147Y-46498D01*
X56147Y-46498D01*
X56250Y-46518D01*
X58000Y-46518D01*
X58102Y-46498D01*
X58102Y-46498D01*
X58190Y-46440D01*
X58205Y-46424D01*
X58217Y-46435D01*
X58231Y-46441D01*
X58231Y-46625D01*
X58251Y-46727D01*
X58292Y-46788D01*
X58292Y-46788D01*
G37*
G54D35*
X58292Y-46788D02*
X58289Y-46792D01*
X58260Y-46862D01*
X58259Y-46937D01*
X58259Y-47370D01*
X58125Y-47370D01*
X58089Y-47334D01*
X58090Y-47287D01*
X58090Y-46687D01*
X58061Y-46617D01*
X58007Y-46564D01*
X57937Y-46535D01*
X57862Y-46534D01*
X57062Y-46534D01*
X56992Y-46563D01*
X56939Y-46617D01*
X56910Y-46687D01*
X56909Y-46762D01*
X56909Y-46893D01*
X56832Y-46815D01*
X56697Y-46760D01*
X56552Y-46759D01*
X56432Y-46809D01*
X56432Y-46795D01*
X56403Y-46725D01*
X56349Y-46671D01*
X56280Y-46642D01*
X56204Y-46642D01*
X56047Y-46642D01*
X56035Y-46647D01*
X56024Y-46642D01*
X55948Y-46642D01*
X55791Y-46642D01*
X55779Y-46647D01*
X55768Y-46642D01*
X55692Y-46642D01*
X55637Y-46642D01*
X55615Y-46620D01*
X55523Y-46582D01*
X55497Y-46582D01*
X55445Y-46634D01*
X55445Y-46582D01*
X55397Y-46582D01*
X55388Y-46536D01*
X55329Y-46449D01*
X55329Y-46449D01*
X54773Y-45893D01*
X55513Y-45893D01*
X56059Y-46440D01*
X56147Y-46498D01*
X56147Y-46498D01*
X56250Y-46518D01*
X58000Y-46518D01*
X58102Y-46498D01*
X58102Y-46498D01*
X58190Y-46440D01*
X58205Y-46424D01*
X58217Y-46435D01*
X58231Y-46441D01*
X58231Y-46625D01*
X58251Y-46727D01*
X58292Y-46788D01*
G54D10*
G36*
X58981Y-42246D02*
X58966Y-42230D01*
X58896Y-42201D01*
X58820Y-42201D01*
X58717Y-42201D01*
X58707Y-42190D01*
X58572Y-42135D01*
X58427Y-42134D01*
X58293Y-42190D01*
X58193Y-42289D01*
X58193Y-41849D01*
X58210Y-41832D01*
X58239Y-41762D01*
X58240Y-41687D01*
X58240Y-41237D01*
X58211Y-41167D01*
X58157Y-41114D01*
X58087Y-41085D01*
X58012Y-41084D01*
X57893Y-41084D01*
X57893Y-40790D01*
X58087Y-40790D01*
X58157Y-40761D01*
X58210Y-40707D01*
X58237Y-40643D01*
X58387Y-40643D01*
X58413Y-40707D01*
X58417Y-40711D01*
X58376Y-40772D01*
X58356Y-40875D01*
X58356Y-41058D01*
X58342Y-41063D01*
X58289Y-41117D01*
X58260Y-41187D01*
X58259Y-41262D01*
X58259Y-41812D01*
X58288Y-41882D01*
X58342Y-41935D01*
X58412Y-41964D01*
X58487Y-41965D01*
X58709Y-41965D01*
X58981Y-42236D01*
X58981Y-42246D01*
X58981Y-42246D01*
G37*
G54D35*
X58981Y-42246D02*
X58966Y-42230D01*
X58896Y-42201D01*
X58820Y-42201D01*
X58717Y-42201D01*
X58707Y-42190D01*
X58572Y-42135D01*
X58427Y-42134D01*
X58293Y-42190D01*
X58193Y-42289D01*
X58193Y-41849D01*
X58210Y-41832D01*
X58239Y-41762D01*
X58240Y-41687D01*
X58240Y-41237D01*
X58211Y-41167D01*
X58157Y-41114D01*
X58087Y-41085D01*
X58012Y-41084D01*
X57893Y-41084D01*
X57893Y-40790D01*
X58087Y-40790D01*
X58157Y-40761D01*
X58210Y-40707D01*
X58237Y-40643D01*
X58387Y-40643D01*
X58413Y-40707D01*
X58417Y-40711D01*
X58376Y-40772D01*
X58356Y-40875D01*
X58356Y-41058D01*
X58342Y-41063D01*
X58289Y-41117D01*
X58260Y-41187D01*
X58259Y-41262D01*
X58259Y-41812D01*
X58288Y-41882D01*
X58342Y-41935D01*
X58412Y-41964D01*
X58487Y-41965D01*
X58709Y-41965D01*
X58981Y-42236D01*
X58981Y-42246D01*
G54D10*
G36*
X59981Y-43388D02*
X59559Y-43809D01*
X59501Y-43897D01*
X59481Y-44000D01*
X59481Y-44371D01*
X59466Y-44356D01*
X59396Y-44327D01*
X59320Y-44327D01*
X59104Y-44327D01*
X59034Y-44356D01*
X59018Y-44372D01*
X59018Y-43375D01*
X58998Y-43272D01*
X58940Y-43184D01*
X58918Y-43163D01*
X58965Y-43143D01*
X59000Y-43109D01*
X59033Y-43143D01*
X59103Y-43172D01*
X59179Y-43172D01*
X59395Y-43172D01*
X59465Y-43143D01*
X59500Y-43109D01*
X59533Y-43143D01*
X59603Y-43172D01*
X59679Y-43172D01*
X59895Y-43172D01*
X59965Y-43143D01*
X59981Y-43127D01*
X59981Y-43388D01*
X59981Y-43388D01*
G37*
G54D35*
X59981Y-43388D02*
X59559Y-43809D01*
X59501Y-43897D01*
X59481Y-44000D01*
X59481Y-44371D01*
X59466Y-44356D01*
X59396Y-44327D01*
X59320Y-44327D01*
X59104Y-44327D01*
X59034Y-44356D01*
X59018Y-44372D01*
X59018Y-43375D01*
X58998Y-43272D01*
X58940Y-43184D01*
X58918Y-43163D01*
X58965Y-43143D01*
X59000Y-43109D01*
X59033Y-43143D01*
X59103Y-43172D01*
X59179Y-43172D01*
X59395Y-43172D01*
X59465Y-43143D01*
X59500Y-43109D01*
X59533Y-43143D01*
X59603Y-43172D01*
X59679Y-43172D01*
X59895Y-43172D01*
X59965Y-43143D01*
X59981Y-43127D01*
X59981Y-43388D01*
G54D10*
G36*
X60204Y-46415D02*
X59908Y-46711D01*
X59842Y-46738D01*
X59789Y-46792D01*
X59762Y-46856D01*
X59487Y-46856D01*
X59461Y-46792D01*
X59407Y-46739D01*
X59337Y-46710D01*
X59262Y-46709D01*
X59012Y-46709D01*
X58942Y-46738D01*
X58889Y-46792D01*
X58875Y-46825D01*
X58861Y-46792D01*
X58843Y-46775D01*
X58843Y-46700D01*
X58823Y-46597D01*
X58768Y-46515D01*
X58768Y-46515D01*
X58768Y-46441D01*
X58782Y-46436D01*
X58835Y-46382D01*
X58864Y-46312D01*
X58865Y-46237D01*
X58865Y-45687D01*
X58851Y-45653D01*
X58940Y-45565D01*
X58940Y-45565D01*
X58981Y-45503D01*
X58981Y-45558D01*
X58967Y-45563D01*
X58914Y-45617D01*
X58885Y-45687D01*
X58884Y-45762D01*
X58884Y-46312D01*
X58913Y-46382D01*
X58967Y-46435D01*
X59037Y-46464D01*
X59112Y-46465D01*
X59462Y-46465D01*
X59532Y-46436D01*
X59585Y-46382D01*
X59614Y-46312D01*
X59615Y-46268D01*
X59762Y-46268D01*
X59788Y-46332D01*
X59842Y-46385D01*
X59912Y-46414D01*
X59987Y-46415D01*
X60204Y-46415D01*
X60204Y-46415D01*
G37*
G54D35*
X60204Y-46415D02*
X59908Y-46711D01*
X59842Y-46738D01*
X59789Y-46792D01*
X59762Y-46856D01*
X59487Y-46856D01*
X59461Y-46792D01*
X59407Y-46739D01*
X59337Y-46710D01*
X59262Y-46709D01*
X59012Y-46709D01*
X58942Y-46738D01*
X58889Y-46792D01*
X58875Y-46825D01*
X58861Y-46792D01*
X58843Y-46775D01*
X58843Y-46700D01*
X58823Y-46597D01*
X58768Y-46515D01*
X58768Y-46515D01*
X58768Y-46441D01*
X58782Y-46436D01*
X58835Y-46382D01*
X58864Y-46312D01*
X58865Y-46237D01*
X58865Y-45687D01*
X58851Y-45653D01*
X58940Y-45565D01*
X58940Y-45565D01*
X58981Y-45503D01*
X58981Y-45558D01*
X58967Y-45563D01*
X58914Y-45617D01*
X58885Y-45687D01*
X58884Y-45762D01*
X58884Y-46312D01*
X58913Y-46382D01*
X58967Y-46435D01*
X59037Y-46464D01*
X59112Y-46465D01*
X59462Y-46465D01*
X59532Y-46436D01*
X59585Y-46382D01*
X59614Y-46312D01*
X59615Y-46268D01*
X59762Y-46268D01*
X59788Y-46332D01*
X59842Y-46385D01*
X59912Y-46414D01*
X59987Y-46415D01*
X60204Y-46415D01*
G54D10*
G36*
X61231Y-46013D02*
X60989Y-46254D01*
X60990Y-46187D01*
X60990Y-45737D01*
X60961Y-45667D01*
X60943Y-45650D01*
X60943Y-45439D01*
X60956Y-45434D01*
X61059Y-45332D01*
X61114Y-45197D01*
X61115Y-45052D01*
X61059Y-44918D01*
X61009Y-44868D01*
X61062Y-44889D01*
X61137Y-44890D01*
X61231Y-44890D01*
X61231Y-46013D01*
X61231Y-46013D01*
G37*
G54D35*
X61231Y-46013D02*
X60989Y-46254D01*
X60990Y-46187D01*
X60990Y-45737D01*
X60961Y-45667D01*
X60943Y-45650D01*
X60943Y-45439D01*
X60956Y-45434D01*
X61059Y-45332D01*
X61114Y-45197D01*
X61115Y-45052D01*
X61059Y-44918D01*
X61009Y-44868D01*
X61062Y-44889D01*
X61137Y-44890D01*
X61231Y-44890D01*
X61231Y-46013D01*
G54D10*
G36*
X63981Y-43388D02*
X63559Y-43809D01*
X63501Y-43897D01*
X63481Y-44000D01*
X63481Y-44371D01*
X63466Y-44356D01*
X63396Y-44327D01*
X63320Y-44327D01*
X63104Y-44327D01*
X63034Y-44356D01*
X62999Y-44390D01*
X62966Y-44356D01*
X62896Y-44327D01*
X62820Y-44327D01*
X62604Y-44327D01*
X62534Y-44356D01*
X62480Y-44409D01*
X62451Y-44479D01*
X62451Y-44555D01*
X62451Y-45145D01*
X62480Y-45215D01*
X62481Y-45216D01*
X62481Y-45263D01*
X62309Y-45434D01*
X62251Y-45522D01*
X62245Y-45552D01*
X62217Y-45563D01*
X62164Y-45617D01*
X62135Y-45687D01*
X62134Y-45762D01*
X62134Y-46312D01*
X62163Y-46382D01*
X62217Y-46435D01*
X62231Y-46441D01*
X62231Y-46625D01*
X62251Y-46727D01*
X62292Y-46788D01*
X62289Y-46792D01*
X62262Y-46856D01*
X62237Y-46856D01*
X62211Y-46792D01*
X62157Y-46739D01*
X62087Y-46710D01*
X62012Y-46709D01*
X61762Y-46709D01*
X61692Y-46738D01*
X61639Y-46792D01*
X61625Y-46825D01*
X61611Y-46792D01*
X61557Y-46739D01*
X61487Y-46710D01*
X61412Y-46709D01*
X61295Y-46709D01*
X61690Y-46315D01*
X61748Y-46227D01*
X61768Y-46125D01*
X61768Y-44890D01*
X61937Y-44890D01*
X62007Y-44861D01*
X62060Y-44807D01*
X62089Y-44737D01*
X62090Y-44662D01*
X62090Y-44062D01*
X62061Y-43992D01*
X62007Y-43939D01*
X61937Y-43910D01*
X61862Y-43909D01*
X61062Y-43909D01*
X60992Y-43938D01*
X60939Y-43992D01*
X60910Y-44062D01*
X60909Y-44137D01*
X60909Y-44737D01*
X60938Y-44807D01*
X60940Y-44808D01*
X60822Y-44760D01*
X60677Y-44759D01*
X60608Y-44788D01*
X60608Y-44788D01*
X60608Y-44762D01*
X60545Y-44762D01*
X60608Y-44700D01*
X60608Y-44567D01*
X60608Y-44467D01*
X60570Y-44375D01*
X60499Y-44305D01*
X60407Y-44267D01*
X60362Y-44267D01*
X60300Y-44330D01*
X60300Y-44762D01*
X60307Y-44762D01*
X60307Y-44862D01*
X60300Y-44862D01*
X60300Y-45295D01*
X60362Y-45358D01*
X60406Y-45358D01*
X60406Y-45650D01*
X60389Y-45667D01*
X60375Y-45700D01*
X60361Y-45667D01*
X60307Y-45614D01*
X60237Y-45585D01*
X60162Y-45584D01*
X60109Y-45584D01*
X60114Y-45572D01*
X60115Y-45427D01*
X60085Y-45355D01*
X60092Y-45358D01*
X60137Y-45358D01*
X60200Y-45295D01*
X60200Y-44862D01*
X60192Y-44862D01*
X60192Y-44762D01*
X60200Y-44762D01*
X60200Y-44330D01*
X60137Y-44267D01*
X60092Y-44267D01*
X60018Y-44298D01*
X60018Y-44111D01*
X60440Y-43690D01*
X60498Y-43602D01*
X60518Y-43500D01*
X60518Y-43090D01*
X60519Y-43090D01*
X60548Y-43020D01*
X60548Y-42944D01*
X60548Y-42354D01*
X60519Y-42284D01*
X60466Y-42230D01*
X60396Y-42201D01*
X60320Y-42201D01*
X60104Y-42201D01*
X60034Y-42230D01*
X60018Y-42246D01*
X60018Y-41915D01*
X60237Y-41915D01*
X60307Y-41886D01*
X60360Y-41832D01*
X60374Y-41799D01*
X60388Y-41832D01*
X60442Y-41885D01*
X60509Y-41914D01*
X60509Y-41947D01*
X60565Y-42081D01*
X60667Y-42184D01*
X60802Y-42239D01*
X60947Y-42240D01*
X61081Y-42184D01*
X61134Y-42265D01*
X61231Y-42361D01*
X61231Y-42609D01*
X61062Y-42609D01*
X60992Y-42638D01*
X60939Y-42692D01*
X60910Y-42762D01*
X60909Y-42837D01*
X60909Y-43437D01*
X60938Y-43507D01*
X60992Y-43560D01*
X61062Y-43589D01*
X61137Y-43590D01*
X61937Y-43590D01*
X62007Y-43561D01*
X62060Y-43507D01*
X62089Y-43437D01*
X62090Y-43362D01*
X62090Y-42762D01*
X62061Y-42692D01*
X62007Y-42639D01*
X61937Y-42610D01*
X61862Y-42609D01*
X61768Y-42609D01*
X61768Y-42250D01*
X61768Y-42249D01*
X61748Y-42147D01*
X61690Y-42059D01*
X61690Y-42059D01*
X61593Y-41963D01*
X61593Y-41849D01*
X61610Y-41832D01*
X61624Y-41799D01*
X61638Y-41832D01*
X61692Y-41885D01*
X61762Y-41914D01*
X61837Y-41915D01*
X62087Y-41915D01*
X62157Y-41886D01*
X62210Y-41832D01*
X62237Y-41768D01*
X62259Y-41768D01*
X62259Y-41812D01*
X62288Y-41882D01*
X62342Y-41935D01*
X62412Y-41964D01*
X62487Y-41965D01*
X62709Y-41965D01*
X62981Y-42236D01*
X62981Y-42246D01*
X62966Y-42230D01*
X62896Y-42201D01*
X62820Y-42201D01*
X62717Y-42201D01*
X62707Y-42190D01*
X62572Y-42135D01*
X62427Y-42134D01*
X62293Y-42190D01*
X62190Y-42292D01*
X62135Y-42427D01*
X62134Y-42572D01*
X62190Y-42706D01*
X62292Y-42809D01*
X62427Y-42864D01*
X62451Y-42864D01*
X62451Y-43019D01*
X62480Y-43089D01*
X62533Y-43143D01*
X62603Y-43172D01*
X62679Y-43172D01*
X62895Y-43172D01*
X62965Y-43143D01*
X63000Y-43109D01*
X63033Y-43143D01*
X63103Y-43172D01*
X63179Y-43172D01*
X63395Y-43172D01*
X63465Y-43143D01*
X63500Y-43109D01*
X63533Y-43143D01*
X63603Y-43172D01*
X63679Y-43172D01*
X63895Y-43172D01*
X63965Y-43143D01*
X63981Y-43127D01*
X63981Y-43388D01*
X63981Y-43388D01*
G37*
G54D35*
X63981Y-43388D02*
X63559Y-43809D01*
X63501Y-43897D01*
X63481Y-44000D01*
X63481Y-44371D01*
X63466Y-44356D01*
X63396Y-44327D01*
X63320Y-44327D01*
X63104Y-44327D01*
X63034Y-44356D01*
X62999Y-44390D01*
X62966Y-44356D01*
X62896Y-44327D01*
X62820Y-44327D01*
X62604Y-44327D01*
X62534Y-44356D01*
X62480Y-44409D01*
X62451Y-44479D01*
X62451Y-44555D01*
X62451Y-45145D01*
X62480Y-45215D01*
X62481Y-45216D01*
X62481Y-45263D01*
X62309Y-45434D01*
X62251Y-45522D01*
X62245Y-45552D01*
X62217Y-45563D01*
X62164Y-45617D01*
X62135Y-45687D01*
X62134Y-45762D01*
X62134Y-46312D01*
X62163Y-46382D01*
X62217Y-46435D01*
X62231Y-46441D01*
X62231Y-46625D01*
X62251Y-46727D01*
X62292Y-46788D01*
X62289Y-46792D01*
X62262Y-46856D01*
X62237Y-46856D01*
X62211Y-46792D01*
X62157Y-46739D01*
X62087Y-46710D01*
X62012Y-46709D01*
X61762Y-46709D01*
X61692Y-46738D01*
X61639Y-46792D01*
X61625Y-46825D01*
X61611Y-46792D01*
X61557Y-46739D01*
X61487Y-46710D01*
X61412Y-46709D01*
X61295Y-46709D01*
X61690Y-46315D01*
X61748Y-46227D01*
X61768Y-46125D01*
X61768Y-44890D01*
X61937Y-44890D01*
X62007Y-44861D01*
X62060Y-44807D01*
X62089Y-44737D01*
X62090Y-44662D01*
X62090Y-44062D01*
X62061Y-43992D01*
X62007Y-43939D01*
X61937Y-43910D01*
X61862Y-43909D01*
X61062Y-43909D01*
X60992Y-43938D01*
X60939Y-43992D01*
X60910Y-44062D01*
X60909Y-44137D01*
X60909Y-44737D01*
X60938Y-44807D01*
X60940Y-44808D01*
X60822Y-44760D01*
X60677Y-44759D01*
X60608Y-44788D01*
X60608Y-44788D01*
X60608Y-44762D01*
X60545Y-44762D01*
X60608Y-44700D01*
X60608Y-44567D01*
X60608Y-44467D01*
X60570Y-44375D01*
X60499Y-44305D01*
X60407Y-44267D01*
X60362Y-44267D01*
X60300Y-44330D01*
X60300Y-44762D01*
X60307Y-44762D01*
X60307Y-44862D01*
X60300Y-44862D01*
X60300Y-45295D01*
X60362Y-45358D01*
X60406Y-45358D01*
X60406Y-45650D01*
X60389Y-45667D01*
X60375Y-45700D01*
X60361Y-45667D01*
X60307Y-45614D01*
X60237Y-45585D01*
X60162Y-45584D01*
X60109Y-45584D01*
X60114Y-45572D01*
X60115Y-45427D01*
X60085Y-45355D01*
X60092Y-45358D01*
X60137Y-45358D01*
X60200Y-45295D01*
X60200Y-44862D01*
X60192Y-44862D01*
X60192Y-44762D01*
X60200Y-44762D01*
X60200Y-44330D01*
X60137Y-44267D01*
X60092Y-44267D01*
X60018Y-44298D01*
X60018Y-44111D01*
X60440Y-43690D01*
X60498Y-43602D01*
X60518Y-43500D01*
X60518Y-43090D01*
X60519Y-43090D01*
X60548Y-43020D01*
X60548Y-42944D01*
X60548Y-42354D01*
X60519Y-42284D01*
X60466Y-42230D01*
X60396Y-42201D01*
X60320Y-42201D01*
X60104Y-42201D01*
X60034Y-42230D01*
X60018Y-42246D01*
X60018Y-41915D01*
X60237Y-41915D01*
X60307Y-41886D01*
X60360Y-41832D01*
X60374Y-41799D01*
X60388Y-41832D01*
X60442Y-41885D01*
X60509Y-41914D01*
X60509Y-41947D01*
X60565Y-42081D01*
X60667Y-42184D01*
X60802Y-42239D01*
X60947Y-42240D01*
X61081Y-42184D01*
X61134Y-42265D01*
X61231Y-42361D01*
X61231Y-42609D01*
X61062Y-42609D01*
X60992Y-42638D01*
X60939Y-42692D01*
X60910Y-42762D01*
X60909Y-42837D01*
X60909Y-43437D01*
X60938Y-43507D01*
X60992Y-43560D01*
X61062Y-43589D01*
X61137Y-43590D01*
X61937Y-43590D01*
X62007Y-43561D01*
X62060Y-43507D01*
X62089Y-43437D01*
X62090Y-43362D01*
X62090Y-42762D01*
X62061Y-42692D01*
X62007Y-42639D01*
X61937Y-42610D01*
X61862Y-42609D01*
X61768Y-42609D01*
X61768Y-42250D01*
X61768Y-42249D01*
X61748Y-42147D01*
X61690Y-42059D01*
X61690Y-42059D01*
X61593Y-41963D01*
X61593Y-41849D01*
X61610Y-41832D01*
X61624Y-41799D01*
X61638Y-41832D01*
X61692Y-41885D01*
X61762Y-41914D01*
X61837Y-41915D01*
X62087Y-41915D01*
X62157Y-41886D01*
X62210Y-41832D01*
X62237Y-41768D01*
X62259Y-41768D01*
X62259Y-41812D01*
X62288Y-41882D01*
X62342Y-41935D01*
X62412Y-41964D01*
X62487Y-41965D01*
X62709Y-41965D01*
X62981Y-42236D01*
X62981Y-42246D01*
X62966Y-42230D01*
X62896Y-42201D01*
X62820Y-42201D01*
X62717Y-42201D01*
X62707Y-42190D01*
X62572Y-42135D01*
X62427Y-42134D01*
X62293Y-42190D01*
X62190Y-42292D01*
X62135Y-42427D01*
X62134Y-42572D01*
X62190Y-42706D01*
X62292Y-42809D01*
X62427Y-42864D01*
X62451Y-42864D01*
X62451Y-43019D01*
X62480Y-43089D01*
X62533Y-43143D01*
X62603Y-43172D01*
X62679Y-43172D01*
X62895Y-43172D01*
X62965Y-43143D01*
X63000Y-43109D01*
X63033Y-43143D01*
X63103Y-43172D01*
X63179Y-43172D01*
X63395Y-43172D01*
X63465Y-43143D01*
X63500Y-43109D01*
X63533Y-43143D01*
X63603Y-43172D01*
X63679Y-43172D01*
X63895Y-43172D01*
X63965Y-43143D01*
X63981Y-43127D01*
X63981Y-43388D01*
G54D10*
G36*
X64204Y-46415D02*
X63908Y-46711D01*
X63842Y-46738D01*
X63789Y-46792D01*
X63762Y-46856D01*
X63487Y-46856D01*
X63461Y-46792D01*
X63407Y-46739D01*
X63337Y-46710D01*
X63262Y-46709D01*
X63012Y-46709D01*
X62942Y-46738D01*
X62889Y-46792D01*
X62875Y-46825D01*
X62861Y-46792D01*
X62843Y-46775D01*
X62843Y-46700D01*
X62823Y-46597D01*
X62768Y-46515D01*
X62768Y-46515D01*
X62768Y-46441D01*
X62782Y-46436D01*
X62835Y-46382D01*
X62864Y-46312D01*
X62865Y-46237D01*
X62865Y-45687D01*
X62851Y-45653D01*
X62940Y-45565D01*
X62940Y-45565D01*
X62981Y-45503D01*
X62981Y-45558D01*
X62967Y-45563D01*
X62914Y-45617D01*
X62885Y-45687D01*
X62884Y-45762D01*
X62884Y-46312D01*
X62913Y-46382D01*
X62967Y-46435D01*
X63037Y-46464D01*
X63112Y-46465D01*
X63462Y-46465D01*
X63532Y-46436D01*
X63585Y-46382D01*
X63614Y-46312D01*
X63615Y-46268D01*
X63762Y-46268D01*
X63788Y-46332D01*
X63842Y-46385D01*
X63912Y-46414D01*
X63987Y-46415D01*
X64204Y-46415D01*
X64204Y-46415D01*
G37*
G54D35*
X64204Y-46415D02*
X63908Y-46711D01*
X63842Y-46738D01*
X63789Y-46792D01*
X63762Y-46856D01*
X63487Y-46856D01*
X63461Y-46792D01*
X63407Y-46739D01*
X63337Y-46710D01*
X63262Y-46709D01*
X63012Y-46709D01*
X62942Y-46738D01*
X62889Y-46792D01*
X62875Y-46825D01*
X62861Y-46792D01*
X62843Y-46775D01*
X62843Y-46700D01*
X62823Y-46597D01*
X62768Y-46515D01*
X62768Y-46515D01*
X62768Y-46441D01*
X62782Y-46436D01*
X62835Y-46382D01*
X62864Y-46312D01*
X62865Y-46237D01*
X62865Y-45687D01*
X62851Y-45653D01*
X62940Y-45565D01*
X62940Y-45565D01*
X62981Y-45503D01*
X62981Y-45558D01*
X62967Y-45563D01*
X62914Y-45617D01*
X62885Y-45687D01*
X62884Y-45762D01*
X62884Y-46312D01*
X62913Y-46382D01*
X62967Y-46435D01*
X63037Y-46464D01*
X63112Y-46465D01*
X63462Y-46465D01*
X63532Y-46436D01*
X63585Y-46382D01*
X63614Y-46312D01*
X63615Y-46268D01*
X63762Y-46268D01*
X63788Y-46332D01*
X63842Y-46385D01*
X63912Y-46414D01*
X63987Y-46415D01*
X64204Y-46415D01*
G54D10*
G36*
X64981Y-44840D02*
X64957Y-44815D01*
X64822Y-44760D01*
X64677Y-44759D01*
X64608Y-44788D01*
X64608Y-44788D01*
X64608Y-44762D01*
X64545Y-44762D01*
X64608Y-44700D01*
X64608Y-44567D01*
X64608Y-44467D01*
X64570Y-44375D01*
X64499Y-44305D01*
X64407Y-44267D01*
X64362Y-44267D01*
X64300Y-44330D01*
X64300Y-44762D01*
X64307Y-44762D01*
X64307Y-44862D01*
X64300Y-44862D01*
X64300Y-45295D01*
X64362Y-45358D01*
X64406Y-45358D01*
X64406Y-45650D01*
X64389Y-45667D01*
X64375Y-45700D01*
X64361Y-45667D01*
X64307Y-45614D01*
X64237Y-45585D01*
X64162Y-45584D01*
X64109Y-45584D01*
X64114Y-45572D01*
X64115Y-45427D01*
X64085Y-45355D01*
X64092Y-45358D01*
X64137Y-45358D01*
X64200Y-45295D01*
X64200Y-44862D01*
X64192Y-44862D01*
X64192Y-44762D01*
X64200Y-44762D01*
X64200Y-44330D01*
X64137Y-44267D01*
X64092Y-44267D01*
X64018Y-44298D01*
X64018Y-44111D01*
X64440Y-43690D01*
X64498Y-43602D01*
X64518Y-43500D01*
X64518Y-43090D01*
X64519Y-43090D01*
X64548Y-43020D01*
X64548Y-42944D01*
X64548Y-42354D01*
X64519Y-42284D01*
X64466Y-42230D01*
X64396Y-42201D01*
X64320Y-42201D01*
X64104Y-42201D01*
X64034Y-42230D01*
X64018Y-42246D01*
X64018Y-41915D01*
X64237Y-41915D01*
X64307Y-41886D01*
X64360Y-41832D01*
X64374Y-41799D01*
X64388Y-41832D01*
X64442Y-41885D01*
X64509Y-41914D01*
X64509Y-41947D01*
X64565Y-42081D01*
X64667Y-42184D01*
X64802Y-42239D01*
X64947Y-42240D01*
X64981Y-42226D01*
X64981Y-44840D01*
X64981Y-44840D01*
G37*
G54D35*
X64981Y-44840D02*
X64957Y-44815D01*
X64822Y-44760D01*
X64677Y-44759D01*
X64608Y-44788D01*
X64608Y-44788D01*
X64608Y-44762D01*
X64545Y-44762D01*
X64608Y-44700D01*
X64608Y-44567D01*
X64608Y-44467D01*
X64570Y-44375D01*
X64499Y-44305D01*
X64407Y-44267D01*
X64362Y-44267D01*
X64300Y-44330D01*
X64300Y-44762D01*
X64307Y-44762D01*
X64307Y-44862D01*
X64300Y-44862D01*
X64300Y-45295D01*
X64362Y-45358D01*
X64406Y-45358D01*
X64406Y-45650D01*
X64389Y-45667D01*
X64375Y-45700D01*
X64361Y-45667D01*
X64307Y-45614D01*
X64237Y-45585D01*
X64162Y-45584D01*
X64109Y-45584D01*
X64114Y-45572D01*
X64115Y-45427D01*
X64085Y-45355D01*
X64092Y-45358D01*
X64137Y-45358D01*
X64200Y-45295D01*
X64200Y-44862D01*
X64192Y-44862D01*
X64192Y-44762D01*
X64200Y-44762D01*
X64200Y-44330D01*
X64137Y-44267D01*
X64092Y-44267D01*
X64018Y-44298D01*
X64018Y-44111D01*
X64440Y-43690D01*
X64498Y-43602D01*
X64518Y-43500D01*
X64518Y-43090D01*
X64519Y-43090D01*
X64548Y-43020D01*
X64548Y-42944D01*
X64548Y-42354D01*
X64519Y-42284D01*
X64466Y-42230D01*
X64396Y-42201D01*
X64320Y-42201D01*
X64104Y-42201D01*
X64034Y-42230D01*
X64018Y-42246D01*
X64018Y-41915D01*
X64237Y-41915D01*
X64307Y-41886D01*
X64360Y-41832D01*
X64374Y-41799D01*
X64388Y-41832D01*
X64442Y-41885D01*
X64509Y-41914D01*
X64509Y-41947D01*
X64565Y-42081D01*
X64667Y-42184D01*
X64802Y-42239D01*
X64947Y-42240D01*
X64981Y-42226D01*
X64981Y-44840D01*
G54D10*
G36*
X65790Y-50478D02*
X65764Y-50609D01*
X65702Y-50702D01*
X65615Y-50760D01*
X65615Y-41427D01*
X65559Y-41293D01*
X65513Y-41247D01*
X65513Y-38042D01*
X65474Y-37946D01*
X65474Y-36080D01*
X65397Y-35895D01*
X65255Y-35753D01*
X65069Y-35676D01*
X64868Y-35675D01*
X64683Y-35752D01*
X64541Y-35894D01*
X64464Y-36080D01*
X64463Y-36281D01*
X64540Y-36466D01*
X64682Y-36608D01*
X64868Y-36685D01*
X65069Y-36686D01*
X65254Y-36609D01*
X65396Y-36467D01*
X65473Y-36281D01*
X65474Y-36080D01*
X65474Y-37946D01*
X65430Y-37841D01*
X65277Y-37688D01*
X65077Y-37605D01*
X64861Y-37605D01*
X64660Y-37688D01*
X64507Y-37841D01*
X64476Y-37916D01*
X64445Y-37841D01*
X64292Y-37688D01*
X64092Y-37605D01*
X63876Y-37605D01*
X63675Y-37688D01*
X63609Y-37754D01*
X63609Y-36275D01*
X63598Y-36035D01*
X63526Y-35860D01*
X63425Y-35826D01*
X63354Y-35897D01*
X63354Y-35755D01*
X63320Y-35654D01*
X63094Y-35571D01*
X62854Y-35582D01*
X62679Y-35654D01*
X62645Y-35755D01*
X63000Y-36110D01*
X63354Y-35755D01*
X63354Y-35897D01*
X63070Y-36181D01*
X63425Y-36535D01*
X63526Y-36501D01*
X63609Y-36275D01*
X63609Y-37754D01*
X63522Y-37841D01*
X63470Y-37966D01*
X63428Y-37864D01*
X63354Y-37790D01*
X63354Y-36606D01*
X63000Y-36251D01*
X62929Y-36322D01*
X62929Y-36181D01*
X62574Y-35826D01*
X62473Y-35860D01*
X62390Y-36086D01*
X62401Y-36326D01*
X62473Y-36501D01*
X62574Y-36535D01*
X62929Y-36181D01*
X62929Y-36322D01*
X62645Y-36606D01*
X62679Y-36707D01*
X62905Y-36790D01*
X63145Y-36779D01*
X63320Y-36707D01*
X63354Y-36606D01*
X63354Y-37790D01*
X63286Y-37722D01*
X63100Y-37645D01*
X62899Y-37644D01*
X62714Y-37721D01*
X62572Y-37863D01*
X62529Y-37966D01*
X62477Y-37841D01*
X62324Y-37688D01*
X62124Y-37605D01*
X61908Y-37605D01*
X61707Y-37688D01*
X61554Y-37841D01*
X61536Y-37885D01*
X61536Y-36080D01*
X61459Y-35895D01*
X61317Y-35753D01*
X61131Y-35676D01*
X60930Y-35675D01*
X60745Y-35752D01*
X60603Y-35894D01*
X60526Y-36080D01*
X60525Y-36281D01*
X60602Y-36466D01*
X60744Y-36608D01*
X60930Y-36685D01*
X61131Y-36686D01*
X61316Y-36609D01*
X61458Y-36467D01*
X61535Y-36281D01*
X61536Y-36080D01*
X61536Y-37885D01*
X61523Y-37916D01*
X61492Y-37841D01*
X61339Y-37688D01*
X61139Y-37605D01*
X60923Y-37605D01*
X60722Y-37688D01*
X60569Y-37841D01*
X60499Y-38009D01*
X60474Y-37946D01*
X60474Y-36080D01*
X60397Y-35895D01*
X60255Y-35753D01*
X60069Y-35676D01*
X59868Y-35675D01*
X59683Y-35752D01*
X59541Y-35894D01*
X59464Y-36080D01*
X59463Y-36281D01*
X59540Y-36466D01*
X59682Y-36608D01*
X59868Y-36685D01*
X60069Y-36686D01*
X60254Y-36609D01*
X60396Y-36467D01*
X60473Y-36281D01*
X60474Y-36080D01*
X60474Y-37946D01*
X60430Y-37841D01*
X60277Y-37688D01*
X60077Y-37605D01*
X59861Y-37605D01*
X59660Y-37688D01*
X59507Y-37841D01*
X59476Y-37916D01*
X59445Y-37841D01*
X59292Y-37688D01*
X59092Y-37605D01*
X58876Y-37605D01*
X58675Y-37688D01*
X58609Y-37754D01*
X58609Y-36275D01*
X58598Y-36035D01*
X58526Y-35860D01*
X58425Y-35826D01*
X58354Y-35897D01*
X58354Y-35755D01*
X58320Y-35654D01*
X58094Y-35571D01*
X57854Y-35582D01*
X57679Y-35654D01*
X57645Y-35755D01*
X58000Y-36110D01*
X58354Y-35755D01*
X58354Y-35897D01*
X58070Y-36181D01*
X58425Y-36535D01*
X58526Y-36501D01*
X58609Y-36275D01*
X58609Y-37754D01*
X58522Y-37841D01*
X58470Y-37966D01*
X58428Y-37864D01*
X58354Y-37790D01*
X58354Y-36606D01*
X58000Y-36251D01*
X57929Y-36322D01*
X57929Y-36181D01*
X57574Y-35826D01*
X57473Y-35860D01*
X57390Y-36086D01*
X57401Y-36326D01*
X57473Y-36501D01*
X57574Y-36535D01*
X57929Y-36181D01*
X57929Y-36322D01*
X57645Y-36606D01*
X57679Y-36707D01*
X57905Y-36790D01*
X58145Y-36779D01*
X58320Y-36707D01*
X58354Y-36606D01*
X58354Y-37790D01*
X58286Y-37722D01*
X58100Y-37645D01*
X57899Y-37644D01*
X57714Y-37721D01*
X57572Y-37863D01*
X57529Y-37966D01*
X57477Y-37841D01*
X57324Y-37688D01*
X57124Y-37605D01*
X56908Y-37605D01*
X56707Y-37688D01*
X56554Y-37841D01*
X56536Y-37885D01*
X56536Y-36080D01*
X56459Y-35895D01*
X56317Y-35753D01*
X56131Y-35676D01*
X55930Y-35675D01*
X55745Y-35752D01*
X55603Y-35894D01*
X55526Y-36080D01*
X55525Y-36281D01*
X55602Y-36466D01*
X55744Y-36608D01*
X55930Y-36685D01*
X56131Y-36686D01*
X56316Y-36609D01*
X56458Y-36467D01*
X56535Y-36281D01*
X56536Y-36080D01*
X56536Y-37885D01*
X56523Y-37916D01*
X56492Y-37841D01*
X56339Y-37688D01*
X56139Y-37605D01*
X55923Y-37605D01*
X55722Y-37688D01*
X55569Y-37841D01*
X55486Y-38041D01*
X55486Y-38257D01*
X55569Y-38458D01*
X55722Y-38611D01*
X55922Y-38694D01*
X56138Y-38694D01*
X56339Y-38611D01*
X56492Y-38458D01*
X56523Y-38383D01*
X56554Y-38458D01*
X56707Y-38611D01*
X56907Y-38694D01*
X57123Y-38694D01*
X57324Y-38611D01*
X57477Y-38458D01*
X57529Y-38333D01*
X57571Y-38435D01*
X57713Y-38577D01*
X57899Y-38654D01*
X58100Y-38655D01*
X58285Y-38578D01*
X58427Y-38436D01*
X58470Y-38333D01*
X58522Y-38458D01*
X58675Y-38611D01*
X58875Y-38694D01*
X59091Y-38694D01*
X59292Y-38611D01*
X59445Y-38458D01*
X59476Y-38383D01*
X59507Y-38458D01*
X59660Y-38611D01*
X59860Y-38694D01*
X60076Y-38694D01*
X60277Y-38611D01*
X60430Y-38458D01*
X60500Y-38290D01*
X60569Y-38458D01*
X60722Y-38611D01*
X60922Y-38694D01*
X61138Y-38694D01*
X61339Y-38611D01*
X61492Y-38458D01*
X61523Y-38383D01*
X61554Y-38458D01*
X61707Y-38611D01*
X61907Y-38694D01*
X62123Y-38694D01*
X62324Y-38611D01*
X62477Y-38458D01*
X62529Y-38333D01*
X62571Y-38435D01*
X62713Y-38577D01*
X62899Y-38654D01*
X63100Y-38655D01*
X63285Y-38578D01*
X63427Y-38436D01*
X63470Y-38333D01*
X63522Y-38458D01*
X63675Y-38611D01*
X63875Y-38694D01*
X64091Y-38694D01*
X64292Y-38611D01*
X64445Y-38458D01*
X64476Y-38383D01*
X64507Y-38458D01*
X64660Y-38611D01*
X64860Y-38694D01*
X65076Y-38694D01*
X65277Y-38611D01*
X65430Y-38458D01*
X65513Y-38258D01*
X65513Y-38042D01*
X65513Y-41247D01*
X65457Y-41190D01*
X65322Y-41135D01*
X65177Y-41134D01*
X65043Y-41190D01*
X64990Y-41243D01*
X64990Y-41237D01*
X64961Y-41167D01*
X64907Y-41114D01*
X64841Y-41086D01*
X64545Y-40789D01*
X64587Y-40790D01*
X64837Y-40790D01*
X64907Y-40761D01*
X64960Y-40707D01*
X64989Y-40637D01*
X64990Y-40562D01*
X64990Y-40112D01*
X64961Y-40042D01*
X64937Y-40018D01*
X64923Y-39947D01*
X64865Y-39859D01*
X64865Y-39859D01*
X64690Y-39684D01*
X64602Y-39626D01*
X64500Y-39606D01*
X62000Y-39606D01*
X61897Y-39626D01*
X61884Y-39635D01*
X61802Y-39634D01*
X61668Y-39690D01*
X61565Y-39792D01*
X61510Y-39927D01*
X61509Y-40072D01*
X61565Y-40206D01*
X61667Y-40309D01*
X61802Y-40364D01*
X61947Y-40365D01*
X62081Y-40309D01*
X62184Y-40207D01*
X62210Y-40143D01*
X62385Y-40143D01*
X62384Y-40187D01*
X62384Y-40637D01*
X62413Y-40707D01*
X62417Y-40711D01*
X62376Y-40772D01*
X62356Y-40875D01*
X62356Y-41058D01*
X62342Y-41063D01*
X62289Y-41117D01*
X62260Y-41187D01*
X62259Y-41231D01*
X62237Y-41231D01*
X62211Y-41167D01*
X62157Y-41114D01*
X62087Y-41085D01*
X62012Y-41084D01*
X61762Y-41084D01*
X61692Y-41113D01*
X61639Y-41167D01*
X61625Y-41200D01*
X61611Y-41167D01*
X61557Y-41114D01*
X61487Y-41085D01*
X61412Y-41084D01*
X61162Y-41084D01*
X61092Y-41113D01*
X61039Y-41167D01*
X61010Y-41237D01*
X61009Y-41312D01*
X61009Y-41535D01*
X60990Y-41527D01*
X60990Y-41237D01*
X60961Y-41167D01*
X60907Y-41114D01*
X60841Y-41086D01*
X60545Y-40789D01*
X60587Y-40790D01*
X60837Y-40790D01*
X60907Y-40761D01*
X60960Y-40707D01*
X60989Y-40637D01*
X60990Y-40562D01*
X60990Y-40112D01*
X60961Y-40042D01*
X60937Y-40018D01*
X60923Y-39947D01*
X60865Y-39859D01*
X60865Y-39859D01*
X60690Y-39684D01*
X60602Y-39626D01*
X60500Y-39606D01*
X57750Y-39606D01*
X57647Y-39626D01*
X57559Y-39684D01*
X57505Y-39739D01*
X57457Y-39690D01*
X57322Y-39635D01*
X57177Y-39634D01*
X57043Y-39690D01*
X56940Y-39792D01*
X56885Y-39927D01*
X56884Y-40072D01*
X56940Y-40206D01*
X57009Y-40276D01*
X57009Y-40637D01*
X57038Y-40707D01*
X57092Y-40760D01*
X57162Y-40789D01*
X57237Y-40790D01*
X57356Y-40790D01*
X57356Y-41084D01*
X57326Y-41084D01*
X57309Y-41043D01*
X57207Y-40940D01*
X57072Y-40885D01*
X56927Y-40884D01*
X56793Y-40940D01*
X56690Y-41042D01*
X56652Y-41135D01*
X56552Y-41134D01*
X56418Y-41190D01*
X56377Y-41231D01*
X56042Y-41231D01*
X56042Y-40989D01*
X56034Y-40970D01*
X56240Y-40765D01*
X56298Y-40677D01*
X56318Y-40575D01*
X56318Y-40474D01*
X56335Y-40457D01*
X56364Y-40387D01*
X56365Y-40312D01*
X56365Y-39862D01*
X56336Y-39792D01*
X56282Y-39739D01*
X56212Y-39710D01*
X56137Y-39709D01*
X55887Y-39709D01*
X55817Y-39738D01*
X55764Y-39792D01*
X55750Y-39825D01*
X55736Y-39792D01*
X55682Y-39739D01*
X55612Y-39710D01*
X55537Y-39709D01*
X55287Y-39709D01*
X55217Y-39738D01*
X55164Y-39792D01*
X55135Y-39862D01*
X55134Y-39937D01*
X55134Y-40387D01*
X55163Y-40456D01*
X55138Y-40481D01*
X54197Y-40481D01*
X54261Y-40416D01*
X54282Y-40367D01*
X54288Y-40382D01*
X54342Y-40435D01*
X54412Y-40464D01*
X54487Y-40465D01*
X54837Y-40465D01*
X54907Y-40436D01*
X54960Y-40382D01*
X54989Y-40312D01*
X54990Y-40237D01*
X54990Y-39687D01*
X54961Y-39617D01*
X54907Y-39564D01*
X54893Y-39558D01*
X54893Y-39250D01*
X54893Y-39249D01*
X54873Y-39147D01*
X54815Y-39059D01*
X54815Y-39059D01*
X54768Y-39013D01*
X54768Y-38791D01*
X54774Y-38789D01*
X54911Y-38653D01*
X54985Y-38474D01*
X54985Y-38281D01*
X54911Y-38103D01*
X54775Y-37966D01*
X54596Y-37892D01*
X54403Y-37892D01*
X54397Y-37895D01*
X54387Y-37885D01*
X54391Y-37886D01*
X54607Y-37886D01*
X54807Y-37804D01*
X54961Y-37651D01*
X55044Y-37451D01*
X55044Y-37234D01*
X54961Y-37034D01*
X54808Y-36881D01*
X54707Y-36839D01*
X54899Y-36759D01*
X55046Y-36612D01*
X55126Y-36419D01*
X55127Y-36211D01*
X55047Y-36018D01*
X54899Y-35870D01*
X54707Y-35790D01*
X54498Y-35790D01*
X54305Y-35869D01*
X54157Y-36017D01*
X54077Y-36210D01*
X54077Y-36418D01*
X54157Y-36611D01*
X54304Y-36759D01*
X54397Y-36798D01*
X54392Y-36798D01*
X54192Y-36880D01*
X54038Y-37033D01*
X53955Y-37233D01*
X53955Y-37450D01*
X54031Y-37633D01*
X54022Y-37631D01*
X52969Y-37631D01*
X53044Y-37451D01*
X53044Y-37234D01*
X52961Y-37034D01*
X52808Y-36881D01*
X52608Y-36798D01*
X52601Y-36798D01*
X52694Y-36759D01*
X52842Y-36612D01*
X52922Y-36419D01*
X52922Y-36211D01*
X52842Y-36018D01*
X52695Y-35870D01*
X52502Y-35790D01*
X52293Y-35790D01*
X52100Y-35869D01*
X51953Y-36017D01*
X51873Y-36210D01*
X51872Y-36418D01*
X51952Y-36611D01*
X52100Y-36759D01*
X52292Y-36839D01*
X52192Y-36880D01*
X52038Y-37033D01*
X51955Y-37233D01*
X51955Y-37450D01*
X52038Y-37650D01*
X52062Y-37674D01*
X52009Y-37709D01*
X52009Y-37709D01*
X52009Y-37709D01*
X51127Y-38592D01*
X51127Y-36211D01*
X51047Y-36018D01*
X50899Y-35870D01*
X50707Y-35790D01*
X50498Y-35790D01*
X50305Y-35869D01*
X50157Y-36017D01*
X50077Y-36210D01*
X50077Y-36418D01*
X50157Y-36611D01*
X50304Y-36759D01*
X50397Y-36798D01*
X50392Y-36798D01*
X50192Y-36880D01*
X50038Y-37033D01*
X49955Y-37233D01*
X49955Y-37450D01*
X50038Y-37650D01*
X50191Y-37803D01*
X50391Y-37886D01*
X50607Y-37886D01*
X50807Y-37804D01*
X50961Y-37651D01*
X51044Y-37451D01*
X51044Y-37234D01*
X50961Y-37034D01*
X50808Y-36881D01*
X50707Y-36839D01*
X50899Y-36759D01*
X51046Y-36612D01*
X51126Y-36419D01*
X51127Y-36211D01*
X51127Y-38592D01*
X50809Y-38909D01*
X50768Y-38971D01*
X50768Y-38791D01*
X50774Y-38789D01*
X50911Y-38653D01*
X50985Y-38474D01*
X50985Y-38281D01*
X50911Y-38103D01*
X50775Y-37966D01*
X50596Y-37892D01*
X50403Y-37892D01*
X50225Y-37966D01*
X50088Y-38102D01*
X50014Y-38281D01*
X50014Y-38474D01*
X50088Y-38652D01*
X50224Y-38789D01*
X50231Y-38791D01*
X50231Y-39250D01*
X50251Y-39352D01*
X50309Y-39440D01*
X50356Y-39486D01*
X50356Y-39534D01*
X50037Y-39534D01*
X49967Y-39563D01*
X49914Y-39617D01*
X49885Y-39687D01*
X49884Y-39731D01*
X49768Y-39731D01*
X49768Y-38791D01*
X49774Y-38789D01*
X49911Y-38653D01*
X49985Y-38474D01*
X49985Y-38281D01*
X49911Y-38103D01*
X49775Y-37966D01*
X49596Y-37892D01*
X49403Y-37892D01*
X49225Y-37966D01*
X49088Y-38102D01*
X49044Y-38209D01*
X49044Y-37234D01*
X48961Y-37034D01*
X48808Y-36881D01*
X48608Y-36798D01*
X48601Y-36798D01*
X48694Y-36759D01*
X48842Y-36612D01*
X48922Y-36419D01*
X48922Y-36211D01*
X48842Y-36018D01*
X48695Y-35870D01*
X48502Y-35790D01*
X48293Y-35790D01*
X48100Y-35869D01*
X47953Y-36017D01*
X47873Y-36210D01*
X47872Y-36418D01*
X47952Y-36611D01*
X48100Y-36759D01*
X48292Y-36839D01*
X48192Y-36880D01*
X48038Y-37033D01*
X47955Y-37233D01*
X47955Y-37450D01*
X48038Y-37650D01*
X48191Y-37803D01*
X48319Y-37857D01*
X48214Y-37900D01*
X48188Y-37995D01*
X48500Y-38307D01*
X48811Y-37995D01*
X48785Y-37900D01*
X48672Y-37860D01*
X48807Y-37804D01*
X48961Y-37651D01*
X49044Y-37451D01*
X49044Y-37234D01*
X49044Y-38209D01*
X49035Y-38232D01*
X48977Y-38092D01*
X48882Y-38066D01*
X48570Y-38377D01*
X48882Y-38689D01*
X48977Y-38662D01*
X49030Y-38512D01*
X49088Y-38652D01*
X49224Y-38789D01*
X49231Y-38791D01*
X49231Y-39534D01*
X48912Y-39534D01*
X48842Y-39563D01*
X48811Y-39594D01*
X48811Y-38760D01*
X48500Y-38448D01*
X48429Y-38519D01*
X48429Y-38377D01*
X48117Y-38066D01*
X48022Y-38092D01*
X47949Y-38297D01*
X47960Y-38513D01*
X48022Y-38662D01*
X48117Y-38689D01*
X48429Y-38377D01*
X48429Y-38519D01*
X48188Y-38760D01*
X48214Y-38855D01*
X48419Y-38928D01*
X48636Y-38917D01*
X48785Y-38855D01*
X48811Y-38760D01*
X48811Y-39594D01*
X48789Y-39617D01*
X48782Y-39632D01*
X48761Y-39583D01*
X48691Y-39512D01*
X48599Y-39474D01*
X48487Y-39475D01*
X48425Y-39537D01*
X48425Y-39950D01*
X48432Y-39950D01*
X48432Y-40050D01*
X48425Y-40050D01*
X48425Y-40462D01*
X48487Y-40525D01*
X48599Y-40525D01*
X48691Y-40487D01*
X48761Y-40416D01*
X48782Y-40367D01*
X48788Y-40382D01*
X48842Y-40435D01*
X48912Y-40464D01*
X48987Y-40465D01*
X49231Y-40465D01*
X49231Y-40784D01*
X48912Y-40784D01*
X48842Y-40813D01*
X48789Y-40867D01*
X48760Y-40937D01*
X48759Y-40981D01*
X48737Y-40981D01*
X48711Y-40917D01*
X48657Y-40864D01*
X48587Y-40835D01*
X48512Y-40834D01*
X48325Y-40834D01*
X48325Y-40462D01*
X48325Y-40050D01*
X48325Y-39950D01*
X48325Y-39537D01*
X48262Y-39475D01*
X48150Y-39474D01*
X48058Y-39512D01*
X47988Y-39583D01*
X47950Y-39675D01*
X47949Y-39774D01*
X47950Y-39887D01*
X48012Y-39950D01*
X48325Y-39950D01*
X48325Y-40050D01*
X48012Y-40050D01*
X47950Y-40112D01*
X47949Y-40225D01*
X47950Y-40324D01*
X47988Y-40416D01*
X48058Y-40487D01*
X48150Y-40525D01*
X48262Y-40525D01*
X48325Y-40462D01*
X48325Y-40834D01*
X48262Y-40834D01*
X48192Y-40863D01*
X48139Y-40917D01*
X48125Y-40950D01*
X48111Y-40917D01*
X48057Y-40864D01*
X48053Y-40862D01*
X48053Y-40862D01*
X48015Y-40804D01*
X48015Y-40804D01*
X47551Y-40341D01*
X47551Y-36701D01*
X47548Y-36283D01*
X47394Y-35911D01*
X47247Y-35823D01*
X47176Y-35894D01*
X47176Y-35752D01*
X47088Y-35605D01*
X46701Y-35448D01*
X46283Y-35451D01*
X45911Y-35605D01*
X45823Y-35752D01*
X46500Y-36429D01*
X47176Y-35752D01*
X47176Y-35894D01*
X46570Y-36500D01*
X47247Y-37176D01*
X47394Y-37088D01*
X47551Y-36701D01*
X47551Y-40341D01*
X47176Y-39966D01*
X47176Y-37247D01*
X46500Y-36570D01*
X46429Y-36641D01*
X46429Y-36500D01*
X45752Y-35823D01*
X45605Y-35911D01*
X45448Y-36298D01*
X45451Y-36716D01*
X45605Y-37088D01*
X45752Y-37176D01*
X46429Y-36500D01*
X46429Y-36641D01*
X45823Y-37247D01*
X45911Y-37394D01*
X46298Y-37551D01*
X46716Y-37548D01*
X47088Y-37394D01*
X47176Y-37247D01*
X47176Y-39966D01*
X46847Y-39636D01*
X46847Y-39475D01*
X46825Y-39422D01*
X46869Y-39378D01*
X46907Y-39286D01*
X46907Y-38873D01*
X46869Y-38781D01*
X46798Y-38711D01*
X46706Y-38673D01*
X46607Y-38672D01*
X46612Y-38673D01*
X46550Y-38735D01*
X46550Y-39030D01*
X46844Y-39030D01*
X46907Y-38967D01*
X46907Y-38873D01*
X46907Y-39286D01*
X46907Y-39192D01*
X46844Y-39130D01*
X46550Y-39130D01*
X46550Y-39137D01*
X46450Y-39137D01*
X46450Y-39130D01*
X46450Y-39030D01*
X46450Y-38735D01*
X46387Y-38673D01*
X46392Y-38672D01*
X46293Y-38673D01*
X46201Y-38711D01*
X46130Y-38781D01*
X46092Y-38873D01*
X46093Y-38967D01*
X46155Y-39030D01*
X46450Y-39030D01*
X46450Y-39130D01*
X46155Y-39130D01*
X46093Y-39192D01*
X46092Y-39286D01*
X46130Y-39378D01*
X46174Y-39422D01*
X46153Y-39475D01*
X46152Y-39550D01*
X46152Y-39864D01*
X46181Y-39934D01*
X46235Y-39987D01*
X46305Y-40016D01*
X46380Y-40017D01*
X46466Y-40017D01*
X47509Y-41060D01*
X47509Y-41062D01*
X47509Y-41512D01*
X47538Y-41582D01*
X47592Y-41635D01*
X47662Y-41664D01*
X47737Y-41665D01*
X47987Y-41665D01*
X48057Y-41636D01*
X48110Y-41582D01*
X48124Y-41549D01*
X48138Y-41582D01*
X48192Y-41635D01*
X48262Y-41664D01*
X48337Y-41665D01*
X48587Y-41665D01*
X48657Y-41636D01*
X48710Y-41582D01*
X48737Y-41518D01*
X48759Y-41518D01*
X48759Y-41562D01*
X48788Y-41632D01*
X48842Y-41685D01*
X48856Y-41691D01*
X48856Y-41859D01*
X48772Y-41876D01*
X48684Y-41934D01*
X48559Y-42059D01*
X48520Y-42119D01*
X48520Y-42119D01*
X48480Y-42158D01*
X48451Y-42228D01*
X48451Y-42304D01*
X48451Y-42319D01*
X48372Y-42371D01*
X47559Y-43184D01*
X47501Y-43272D01*
X47481Y-43375D01*
X47481Y-44731D01*
X47054Y-44731D01*
X47054Y-42081D01*
X47054Y-41081D01*
X47043Y-40863D01*
X46981Y-40712D01*
X46885Y-40684D01*
X46815Y-40755D01*
X46815Y-40614D01*
X46787Y-40518D01*
X46581Y-40445D01*
X46363Y-40456D01*
X46212Y-40518D01*
X46184Y-40614D01*
X46500Y-40929D01*
X46815Y-40614D01*
X46815Y-40755D01*
X46570Y-41000D01*
X46885Y-41315D01*
X46981Y-41287D01*
X47054Y-41081D01*
X47054Y-42081D01*
X47043Y-41863D01*
X46981Y-41712D01*
X46885Y-41684D01*
X46815Y-41755D01*
X46815Y-41614D01*
X46787Y-41518D01*
X46739Y-41501D01*
X46787Y-41481D01*
X46815Y-41385D01*
X46500Y-41070D01*
X46429Y-41141D01*
X46429Y-41000D01*
X46114Y-40684D01*
X46018Y-40712D01*
X45945Y-40918D01*
X45956Y-41136D01*
X46018Y-41287D01*
X46114Y-41315D01*
X46429Y-41000D01*
X46429Y-41141D01*
X46184Y-41385D01*
X46212Y-41481D01*
X46260Y-41498D01*
X46212Y-41518D01*
X46184Y-41614D01*
X46500Y-41929D01*
X46815Y-41614D01*
X46815Y-41755D01*
X46570Y-42000D01*
X46885Y-42315D01*
X46981Y-42287D01*
X47054Y-42081D01*
X47054Y-44731D01*
X46990Y-44731D01*
X46990Y-44662D01*
X46961Y-44592D01*
X46907Y-44539D01*
X46837Y-44510D01*
X46762Y-44509D01*
X46370Y-44509D01*
X46393Y-44486D01*
X46402Y-44489D01*
X46597Y-44490D01*
X46777Y-44415D01*
X46915Y-44277D01*
X46989Y-44097D01*
X46990Y-43902D01*
X46915Y-43722D01*
X46777Y-43584D01*
X46597Y-43510D01*
X46402Y-43509D01*
X46347Y-43533D01*
X46393Y-43486D01*
X46402Y-43489D01*
X46597Y-43490D01*
X46777Y-43415D01*
X46915Y-43277D01*
X46989Y-43097D01*
X46990Y-42902D01*
X46915Y-42722D01*
X46777Y-42584D01*
X46658Y-42535D01*
X46787Y-42481D01*
X46815Y-42385D01*
X46500Y-42070D01*
X46429Y-42141D01*
X46429Y-42000D01*
X46114Y-41684D01*
X46018Y-41712D01*
X45945Y-41918D01*
X45956Y-42136D01*
X46018Y-42287D01*
X46114Y-42315D01*
X46429Y-42000D01*
X46429Y-42141D01*
X46184Y-42385D01*
X46212Y-42481D01*
X46351Y-42531D01*
X46222Y-42584D01*
X46084Y-42722D01*
X46010Y-42902D01*
X46009Y-43097D01*
X46013Y-43106D01*
X45559Y-43559D01*
X45501Y-43647D01*
X45481Y-43750D01*
X45481Y-45775D01*
X45501Y-45877D01*
X45559Y-45965D01*
X45694Y-46099D01*
X45620Y-46141D01*
X45620Y-46572D01*
X45628Y-46572D01*
X45628Y-46672D01*
X45620Y-46672D01*
X45620Y-46886D01*
X45606Y-46960D01*
X45606Y-47750D01*
X45626Y-47852D01*
X45684Y-47940D01*
X45934Y-48190D01*
X45934Y-48190D01*
X46022Y-48248D01*
X46125Y-48268D01*
X46178Y-48268D01*
X46178Y-48269D01*
X46156Y-48291D01*
X46118Y-48383D01*
X46118Y-48409D01*
X46180Y-48472D01*
X46237Y-48472D01*
X46260Y-48495D01*
X46330Y-48524D01*
X46405Y-48524D01*
X46459Y-48524D01*
X46395Y-48551D01*
X46180Y-48551D01*
X46118Y-48613D01*
X46118Y-48640D01*
X46156Y-48731D01*
X46193Y-48769D01*
X46142Y-48917D01*
X46154Y-49110D01*
X46205Y-49233D01*
X46294Y-49253D01*
X46563Y-48984D01*
X46557Y-48978D01*
X46628Y-48907D01*
X46633Y-48913D01*
X46639Y-48907D01*
X46710Y-48978D01*
X46704Y-48984D01*
X46973Y-49253D01*
X47062Y-49233D01*
X47125Y-49050D01*
X47113Y-48857D01*
X47106Y-48840D01*
X47146Y-48840D01*
X47238Y-48802D01*
X47308Y-48731D01*
X47346Y-48640D01*
X47346Y-48613D01*
X47283Y-48551D01*
X46869Y-48551D01*
X46792Y-48524D01*
X47134Y-48524D01*
X47203Y-48495D01*
X47227Y-48472D01*
X47283Y-48472D01*
X47313Y-48443D01*
X47559Y-48690D01*
X47634Y-48740D01*
X47634Y-48762D01*
X47663Y-48832D01*
X47681Y-48849D01*
X47681Y-48900D01*
X47664Y-48917D01*
X47635Y-48987D01*
X47634Y-49062D01*
X47634Y-49512D01*
X47663Y-49582D01*
X47717Y-49635D01*
X47787Y-49664D01*
X47862Y-49665D01*
X48112Y-49665D01*
X48182Y-49636D01*
X48235Y-49582D01*
X48249Y-49549D01*
X48263Y-49582D01*
X48317Y-49635D01*
X48387Y-49664D01*
X48462Y-49665D01*
X48712Y-49665D01*
X48782Y-49636D01*
X48835Y-49582D01*
X48864Y-49512D01*
X48865Y-49437D01*
X48865Y-49390D01*
X49769Y-48485D01*
X49754Y-48521D01*
X49754Y-48706D01*
X49825Y-48877D01*
X49955Y-49008D01*
X50127Y-49079D01*
X50312Y-49079D01*
X50324Y-49074D01*
X50397Y-49123D01*
X50500Y-49143D01*
X52519Y-49143D01*
X52621Y-49123D01*
X52621Y-49123D01*
X52687Y-49079D01*
X52872Y-49079D01*
X53043Y-49008D01*
X53169Y-48882D01*
X53830Y-48882D01*
X53955Y-49008D01*
X54127Y-49079D01*
X54312Y-49079D01*
X54483Y-49008D01*
X54614Y-48878D01*
X54685Y-48707D01*
X54685Y-48690D01*
X55182Y-49187D01*
X55190Y-49206D01*
X55292Y-49309D01*
X55427Y-49364D01*
X55572Y-49365D01*
X55706Y-49309D01*
X55809Y-49207D01*
X55864Y-49072D01*
X55865Y-48927D01*
X55824Y-48829D01*
X56559Y-49565D01*
X56647Y-49623D01*
X56647Y-49623D01*
X56750Y-49643D01*
X58752Y-49643D01*
X58792Y-49684D01*
X58927Y-49739D01*
X59072Y-49740D01*
X59206Y-49684D01*
X59309Y-49582D01*
X59364Y-49447D01*
X59365Y-49302D01*
X59309Y-49168D01*
X59207Y-49065D01*
X59072Y-49010D01*
X58927Y-49009D01*
X58793Y-49065D01*
X58752Y-49106D01*
X56861Y-49106D01*
X56834Y-49079D01*
X56872Y-49079D01*
X57043Y-49008D01*
X57169Y-48882D01*
X57830Y-48882D01*
X57955Y-49008D01*
X58127Y-49079D01*
X58312Y-49079D01*
X58483Y-49008D01*
X58614Y-48878D01*
X58685Y-48707D01*
X58685Y-48521D01*
X58632Y-48393D01*
X59263Y-48393D01*
X60584Y-49715D01*
X60672Y-49773D01*
X60775Y-49793D01*
X61284Y-49793D01*
X61284Y-49862D01*
X61313Y-49932D01*
X61367Y-49985D01*
X61437Y-50014D01*
X61512Y-50015D01*
X62312Y-50015D01*
X62382Y-49986D01*
X62435Y-49932D01*
X62464Y-49862D01*
X62465Y-49787D01*
X62465Y-49187D01*
X62436Y-49117D01*
X62382Y-49064D01*
X62312Y-49035D01*
X62237Y-49034D01*
X61437Y-49034D01*
X61367Y-49063D01*
X61314Y-49117D01*
X61285Y-49187D01*
X61284Y-49256D01*
X60886Y-49256D01*
X60709Y-49079D01*
X60872Y-49079D01*
X61043Y-49008D01*
X61174Y-48878D01*
X61245Y-48707D01*
X61245Y-48521D01*
X61174Y-48350D01*
X61044Y-48219D01*
X60873Y-48148D01*
X60687Y-48148D01*
X60516Y-48219D01*
X60385Y-48349D01*
X60314Y-48521D01*
X60314Y-48684D01*
X59773Y-48143D01*
X60625Y-48143D01*
X60727Y-48123D01*
X60727Y-48123D01*
X60815Y-48065D01*
X61190Y-47690D01*
X61238Y-47618D01*
X61379Y-47759D01*
X61367Y-47763D01*
X61314Y-47817D01*
X61285Y-47887D01*
X61284Y-47962D01*
X61284Y-48562D01*
X61313Y-48632D01*
X61367Y-48685D01*
X61437Y-48714D01*
X61512Y-48715D01*
X62312Y-48715D01*
X62382Y-48686D01*
X62435Y-48632D01*
X62464Y-48562D01*
X62465Y-48487D01*
X62465Y-47887D01*
X62436Y-47817D01*
X62382Y-47764D01*
X62312Y-47735D01*
X62237Y-47734D01*
X62098Y-47734D01*
X62065Y-47684D01*
X61920Y-47540D01*
X62087Y-47540D01*
X62157Y-47511D01*
X62210Y-47457D01*
X62237Y-47393D01*
X62262Y-47393D01*
X62288Y-47457D01*
X62342Y-47510D01*
X62412Y-47539D01*
X62487Y-47540D01*
X62737Y-47540D01*
X62807Y-47511D01*
X62860Y-47457D01*
X62874Y-47424D01*
X62888Y-47457D01*
X62942Y-47510D01*
X63012Y-47539D01*
X63087Y-47540D01*
X63337Y-47540D01*
X63407Y-47511D01*
X63460Y-47457D01*
X63487Y-47393D01*
X63762Y-47393D01*
X63788Y-47457D01*
X63842Y-47510D01*
X63912Y-47539D01*
X63987Y-47540D01*
X64237Y-47540D01*
X64307Y-47511D01*
X64360Y-47457D01*
X64374Y-47424D01*
X64388Y-47457D01*
X64442Y-47510D01*
X64512Y-47539D01*
X64587Y-47540D01*
X64837Y-47540D01*
X64907Y-47511D01*
X64960Y-47457D01*
X64989Y-47387D01*
X64990Y-47312D01*
X64990Y-47265D01*
X65440Y-46815D01*
X65498Y-46727D01*
X65518Y-46625D01*
X65518Y-41747D01*
X65559Y-41707D01*
X65614Y-41572D01*
X65615Y-41427D01*
X65615Y-50760D01*
X65609Y-50764D01*
X65551Y-50776D01*
X65551Y-49701D01*
X65548Y-49283D01*
X65394Y-48911D01*
X65247Y-48823D01*
X65176Y-48894D01*
X65176Y-48752D01*
X65088Y-48605D01*
X64701Y-48448D01*
X64283Y-48451D01*
X63911Y-48605D01*
X63823Y-48752D01*
X64500Y-49429D01*
X65176Y-48752D01*
X65176Y-48894D01*
X64570Y-49500D01*
X65247Y-50176D01*
X65394Y-50088D01*
X65551Y-49701D01*
X65551Y-50776D01*
X65479Y-50790D01*
X65176Y-50790D01*
X65176Y-50247D01*
X64500Y-49570D01*
X64429Y-49641D01*
X64429Y-49500D01*
X63752Y-48823D01*
X63605Y-48911D01*
X63448Y-49298D01*
X63451Y-49716D01*
X63605Y-50088D01*
X63752Y-50176D01*
X64429Y-49500D01*
X64429Y-49641D01*
X63823Y-50247D01*
X63911Y-50394D01*
X64298Y-50551D01*
X64716Y-50548D01*
X65088Y-50394D01*
X65176Y-50247D01*
X65176Y-50790D01*
X61020Y-50790D01*
X61043Y-50780D01*
X61174Y-50650D01*
X61245Y-50479D01*
X61245Y-50293D01*
X61174Y-50122D01*
X61044Y-49991D01*
X60873Y-49920D01*
X60687Y-49920D01*
X60516Y-49991D01*
X60385Y-50121D01*
X60314Y-50293D01*
X60314Y-50478D01*
X60385Y-50649D01*
X60515Y-50780D01*
X60539Y-50790D01*
X58460Y-50790D01*
X58483Y-50780D01*
X58614Y-50650D01*
X58685Y-50479D01*
X58685Y-50293D01*
X58614Y-50122D01*
X58484Y-49991D01*
X58313Y-49920D01*
X58127Y-49920D01*
X57956Y-49991D01*
X57825Y-50121D01*
X57754Y-50293D01*
X57754Y-50478D01*
X57825Y-50649D01*
X57955Y-50780D01*
X57979Y-50790D01*
X57020Y-50790D01*
X57043Y-50780D01*
X57174Y-50650D01*
X57245Y-50479D01*
X57245Y-50293D01*
X57174Y-50122D01*
X57044Y-49991D01*
X56873Y-49920D01*
X56687Y-49920D01*
X56516Y-49991D01*
X56385Y-50121D01*
X56314Y-50293D01*
X56314Y-50478D01*
X56385Y-50649D01*
X56515Y-50780D01*
X56539Y-50790D01*
X54460Y-50790D01*
X54483Y-50780D01*
X54614Y-50650D01*
X54685Y-50479D01*
X54685Y-50293D01*
X54614Y-50122D01*
X54484Y-49991D01*
X54313Y-49920D01*
X54127Y-49920D01*
X53956Y-49991D01*
X53825Y-50121D01*
X53754Y-50293D01*
X53754Y-50478D01*
X53825Y-50649D01*
X53955Y-50780D01*
X53979Y-50790D01*
X53020Y-50790D01*
X53043Y-50780D01*
X53174Y-50650D01*
X53245Y-50479D01*
X53245Y-50293D01*
X53174Y-50122D01*
X53044Y-49991D01*
X52873Y-49920D01*
X52687Y-49920D01*
X52516Y-49991D01*
X52385Y-50121D01*
X52314Y-50293D01*
X52314Y-50478D01*
X52385Y-50649D01*
X52515Y-50780D01*
X52539Y-50790D01*
X50460Y-50790D01*
X50483Y-50780D01*
X50614Y-50650D01*
X50685Y-50479D01*
X50685Y-50293D01*
X50614Y-50122D01*
X50484Y-49991D01*
X50313Y-49920D01*
X50127Y-49920D01*
X49956Y-49991D01*
X49825Y-50121D01*
X49754Y-50293D01*
X49754Y-50478D01*
X49825Y-50649D01*
X49955Y-50780D01*
X49979Y-50790D01*
X46902Y-50790D01*
X46902Y-49323D01*
X46633Y-49054D01*
X46364Y-49323D01*
X46384Y-49412D01*
X46567Y-49475D01*
X46760Y-49463D01*
X46883Y-49412D01*
X46902Y-49323D01*
X46902Y-50790D01*
X46099Y-50790D01*
X46099Y-49512D01*
X46099Y-49243D01*
X46007Y-49051D01*
X45849Y-48909D01*
X45705Y-48849D01*
X45620Y-48897D01*
X45620Y-49327D01*
X46051Y-49327D01*
X46099Y-49243D01*
X46099Y-49512D01*
X46051Y-49427D01*
X45620Y-49427D01*
X45620Y-49858D01*
X45705Y-49906D01*
X45849Y-49846D01*
X46007Y-49704D01*
X46099Y-49512D01*
X46099Y-50790D01*
X45521Y-50790D01*
X45390Y-50764D01*
X45297Y-50702D01*
X45235Y-50609D01*
X45209Y-50479D01*
X45209Y-49772D01*
X45292Y-49846D01*
X45436Y-49906D01*
X45520Y-49858D01*
X45520Y-49427D01*
X45512Y-49427D01*
X45512Y-49327D01*
X45520Y-49327D01*
X45520Y-48897D01*
X45436Y-48849D01*
X45292Y-48909D01*
X45209Y-48983D01*
X45209Y-47016D01*
X45292Y-47090D01*
X45436Y-47150D01*
X45520Y-47102D01*
X45520Y-46672D01*
X45512Y-46672D01*
X45512Y-46572D01*
X45520Y-46572D01*
X45520Y-46141D01*
X45436Y-46093D01*
X45292Y-46153D01*
X45209Y-46227D01*
X45209Y-35520D01*
X45235Y-35390D01*
X45297Y-35297D01*
X45390Y-35235D01*
X45521Y-35209D01*
X65479Y-35209D01*
X65609Y-35235D01*
X65702Y-35297D01*
X65764Y-35390D01*
X65790Y-35521D01*
X65790Y-50478D01*
X65790Y-50478D01*
G37*
G54D35*
X65790Y-50478D02*
X65764Y-50609D01*
X65702Y-50702D01*
X65615Y-50760D01*
X65615Y-41427D01*
X65559Y-41293D01*
X65513Y-41247D01*
X65513Y-38042D01*
X65474Y-37946D01*
X65474Y-36080D01*
X65397Y-35895D01*
X65255Y-35753D01*
X65069Y-35676D01*
X64868Y-35675D01*
X64683Y-35752D01*
X64541Y-35894D01*
X64464Y-36080D01*
X64463Y-36281D01*
X64540Y-36466D01*
X64682Y-36608D01*
X64868Y-36685D01*
X65069Y-36686D01*
X65254Y-36609D01*
X65396Y-36467D01*
X65473Y-36281D01*
X65474Y-36080D01*
X65474Y-37946D01*
X65430Y-37841D01*
X65277Y-37688D01*
X65077Y-37605D01*
X64861Y-37605D01*
X64660Y-37688D01*
X64507Y-37841D01*
X64476Y-37916D01*
X64445Y-37841D01*
X64292Y-37688D01*
X64092Y-37605D01*
X63876Y-37605D01*
X63675Y-37688D01*
X63609Y-37754D01*
X63609Y-36275D01*
X63598Y-36035D01*
X63526Y-35860D01*
X63425Y-35826D01*
X63354Y-35897D01*
X63354Y-35755D01*
X63320Y-35654D01*
X63094Y-35571D01*
X62854Y-35582D01*
X62679Y-35654D01*
X62645Y-35755D01*
X63000Y-36110D01*
X63354Y-35755D01*
X63354Y-35897D01*
X63070Y-36181D01*
X63425Y-36535D01*
X63526Y-36501D01*
X63609Y-36275D01*
X63609Y-37754D01*
X63522Y-37841D01*
X63470Y-37966D01*
X63428Y-37864D01*
X63354Y-37790D01*
X63354Y-36606D01*
X63000Y-36251D01*
X62929Y-36322D01*
X62929Y-36181D01*
X62574Y-35826D01*
X62473Y-35860D01*
X62390Y-36086D01*
X62401Y-36326D01*
X62473Y-36501D01*
X62574Y-36535D01*
X62929Y-36181D01*
X62929Y-36322D01*
X62645Y-36606D01*
X62679Y-36707D01*
X62905Y-36790D01*
X63145Y-36779D01*
X63320Y-36707D01*
X63354Y-36606D01*
X63354Y-37790D01*
X63286Y-37722D01*
X63100Y-37645D01*
X62899Y-37644D01*
X62714Y-37721D01*
X62572Y-37863D01*
X62529Y-37966D01*
X62477Y-37841D01*
X62324Y-37688D01*
X62124Y-37605D01*
X61908Y-37605D01*
X61707Y-37688D01*
X61554Y-37841D01*
X61536Y-37885D01*
X61536Y-36080D01*
X61459Y-35895D01*
X61317Y-35753D01*
X61131Y-35676D01*
X60930Y-35675D01*
X60745Y-35752D01*
X60603Y-35894D01*
X60526Y-36080D01*
X60525Y-36281D01*
X60602Y-36466D01*
X60744Y-36608D01*
X60930Y-36685D01*
X61131Y-36686D01*
X61316Y-36609D01*
X61458Y-36467D01*
X61535Y-36281D01*
X61536Y-36080D01*
X61536Y-37885D01*
X61523Y-37916D01*
X61492Y-37841D01*
X61339Y-37688D01*
X61139Y-37605D01*
X60923Y-37605D01*
X60722Y-37688D01*
X60569Y-37841D01*
X60499Y-38009D01*
X60474Y-37946D01*
X60474Y-36080D01*
X60397Y-35895D01*
X60255Y-35753D01*
X60069Y-35676D01*
X59868Y-35675D01*
X59683Y-35752D01*
X59541Y-35894D01*
X59464Y-36080D01*
X59463Y-36281D01*
X59540Y-36466D01*
X59682Y-36608D01*
X59868Y-36685D01*
X60069Y-36686D01*
X60254Y-36609D01*
X60396Y-36467D01*
X60473Y-36281D01*
X60474Y-36080D01*
X60474Y-37946D01*
X60430Y-37841D01*
X60277Y-37688D01*
X60077Y-37605D01*
X59861Y-37605D01*
X59660Y-37688D01*
X59507Y-37841D01*
X59476Y-37916D01*
X59445Y-37841D01*
X59292Y-37688D01*
X59092Y-37605D01*
X58876Y-37605D01*
X58675Y-37688D01*
X58609Y-37754D01*
X58609Y-36275D01*
X58598Y-36035D01*
X58526Y-35860D01*
X58425Y-35826D01*
X58354Y-35897D01*
X58354Y-35755D01*
X58320Y-35654D01*
X58094Y-35571D01*
X57854Y-35582D01*
X57679Y-35654D01*
X57645Y-35755D01*
X58000Y-36110D01*
X58354Y-35755D01*
X58354Y-35897D01*
X58070Y-36181D01*
X58425Y-36535D01*
X58526Y-36501D01*
X58609Y-36275D01*
X58609Y-37754D01*
X58522Y-37841D01*
X58470Y-37966D01*
X58428Y-37864D01*
X58354Y-37790D01*
X58354Y-36606D01*
X58000Y-36251D01*
X57929Y-36322D01*
X57929Y-36181D01*
X57574Y-35826D01*
X57473Y-35860D01*
X57390Y-36086D01*
X57401Y-36326D01*
X57473Y-36501D01*
X57574Y-36535D01*
X57929Y-36181D01*
X57929Y-36322D01*
X57645Y-36606D01*
X57679Y-36707D01*
X57905Y-36790D01*
X58145Y-36779D01*
X58320Y-36707D01*
X58354Y-36606D01*
X58354Y-37790D01*
X58286Y-37722D01*
X58100Y-37645D01*
X57899Y-37644D01*
X57714Y-37721D01*
X57572Y-37863D01*
X57529Y-37966D01*
X57477Y-37841D01*
X57324Y-37688D01*
X57124Y-37605D01*
X56908Y-37605D01*
X56707Y-37688D01*
X56554Y-37841D01*
X56536Y-37885D01*
X56536Y-36080D01*
X56459Y-35895D01*
X56317Y-35753D01*
X56131Y-35676D01*
X55930Y-35675D01*
X55745Y-35752D01*
X55603Y-35894D01*
X55526Y-36080D01*
X55525Y-36281D01*
X55602Y-36466D01*
X55744Y-36608D01*
X55930Y-36685D01*
X56131Y-36686D01*
X56316Y-36609D01*
X56458Y-36467D01*
X56535Y-36281D01*
X56536Y-36080D01*
X56536Y-37885D01*
X56523Y-37916D01*
X56492Y-37841D01*
X56339Y-37688D01*
X56139Y-37605D01*
X55923Y-37605D01*
X55722Y-37688D01*
X55569Y-37841D01*
X55486Y-38041D01*
X55486Y-38257D01*
X55569Y-38458D01*
X55722Y-38611D01*
X55922Y-38694D01*
X56138Y-38694D01*
X56339Y-38611D01*
X56492Y-38458D01*
X56523Y-38383D01*
X56554Y-38458D01*
X56707Y-38611D01*
X56907Y-38694D01*
X57123Y-38694D01*
X57324Y-38611D01*
X57477Y-38458D01*
X57529Y-38333D01*
X57571Y-38435D01*
X57713Y-38577D01*
X57899Y-38654D01*
X58100Y-38655D01*
X58285Y-38578D01*
X58427Y-38436D01*
X58470Y-38333D01*
X58522Y-38458D01*
X58675Y-38611D01*
X58875Y-38694D01*
X59091Y-38694D01*
X59292Y-38611D01*
X59445Y-38458D01*
X59476Y-38383D01*
X59507Y-38458D01*
X59660Y-38611D01*
X59860Y-38694D01*
X60076Y-38694D01*
X60277Y-38611D01*
X60430Y-38458D01*
X60500Y-38290D01*
X60569Y-38458D01*
X60722Y-38611D01*
X60922Y-38694D01*
X61138Y-38694D01*
X61339Y-38611D01*
X61492Y-38458D01*
X61523Y-38383D01*
X61554Y-38458D01*
X61707Y-38611D01*
X61907Y-38694D01*
X62123Y-38694D01*
X62324Y-38611D01*
X62477Y-38458D01*
X62529Y-38333D01*
X62571Y-38435D01*
X62713Y-38577D01*
X62899Y-38654D01*
X63100Y-38655D01*
X63285Y-38578D01*
X63427Y-38436D01*
X63470Y-38333D01*
X63522Y-38458D01*
X63675Y-38611D01*
X63875Y-38694D01*
X64091Y-38694D01*
X64292Y-38611D01*
X64445Y-38458D01*
X64476Y-38383D01*
X64507Y-38458D01*
X64660Y-38611D01*
X64860Y-38694D01*
X65076Y-38694D01*
X65277Y-38611D01*
X65430Y-38458D01*
X65513Y-38258D01*
X65513Y-38042D01*
X65513Y-41247D01*
X65457Y-41190D01*
X65322Y-41135D01*
X65177Y-41134D01*
X65043Y-41190D01*
X64990Y-41243D01*
X64990Y-41237D01*
X64961Y-41167D01*
X64907Y-41114D01*
X64841Y-41086D01*
X64545Y-40789D01*
X64587Y-40790D01*
X64837Y-40790D01*
X64907Y-40761D01*
X64960Y-40707D01*
X64989Y-40637D01*
X64990Y-40562D01*
X64990Y-40112D01*
X64961Y-40042D01*
X64937Y-40018D01*
X64923Y-39947D01*
X64865Y-39859D01*
X64865Y-39859D01*
X64690Y-39684D01*
X64602Y-39626D01*
X64500Y-39606D01*
X62000Y-39606D01*
X61897Y-39626D01*
X61884Y-39635D01*
X61802Y-39634D01*
X61668Y-39690D01*
X61565Y-39792D01*
X61510Y-39927D01*
X61509Y-40072D01*
X61565Y-40206D01*
X61667Y-40309D01*
X61802Y-40364D01*
X61947Y-40365D01*
X62081Y-40309D01*
X62184Y-40207D01*
X62210Y-40143D01*
X62385Y-40143D01*
X62384Y-40187D01*
X62384Y-40637D01*
X62413Y-40707D01*
X62417Y-40711D01*
X62376Y-40772D01*
X62356Y-40875D01*
X62356Y-41058D01*
X62342Y-41063D01*
X62289Y-41117D01*
X62260Y-41187D01*
X62259Y-41231D01*
X62237Y-41231D01*
X62211Y-41167D01*
X62157Y-41114D01*
X62087Y-41085D01*
X62012Y-41084D01*
X61762Y-41084D01*
X61692Y-41113D01*
X61639Y-41167D01*
X61625Y-41200D01*
X61611Y-41167D01*
X61557Y-41114D01*
X61487Y-41085D01*
X61412Y-41084D01*
X61162Y-41084D01*
X61092Y-41113D01*
X61039Y-41167D01*
X61010Y-41237D01*
X61009Y-41312D01*
X61009Y-41535D01*
X60990Y-41527D01*
X60990Y-41237D01*
X60961Y-41167D01*
X60907Y-41114D01*
X60841Y-41086D01*
X60545Y-40789D01*
X60587Y-40790D01*
X60837Y-40790D01*
X60907Y-40761D01*
X60960Y-40707D01*
X60989Y-40637D01*
X60990Y-40562D01*
X60990Y-40112D01*
X60961Y-40042D01*
X60937Y-40018D01*
X60923Y-39947D01*
X60865Y-39859D01*
X60865Y-39859D01*
X60690Y-39684D01*
X60602Y-39626D01*
X60500Y-39606D01*
X57750Y-39606D01*
X57647Y-39626D01*
X57559Y-39684D01*
X57505Y-39739D01*
X57457Y-39690D01*
X57322Y-39635D01*
X57177Y-39634D01*
X57043Y-39690D01*
X56940Y-39792D01*
X56885Y-39927D01*
X56884Y-40072D01*
X56940Y-40206D01*
X57009Y-40276D01*
X57009Y-40637D01*
X57038Y-40707D01*
X57092Y-40760D01*
X57162Y-40789D01*
X57237Y-40790D01*
X57356Y-40790D01*
X57356Y-41084D01*
X57326Y-41084D01*
X57309Y-41043D01*
X57207Y-40940D01*
X57072Y-40885D01*
X56927Y-40884D01*
X56793Y-40940D01*
X56690Y-41042D01*
X56652Y-41135D01*
X56552Y-41134D01*
X56418Y-41190D01*
X56377Y-41231D01*
X56042Y-41231D01*
X56042Y-40989D01*
X56034Y-40970D01*
X56240Y-40765D01*
X56298Y-40677D01*
X56318Y-40575D01*
X56318Y-40474D01*
X56335Y-40457D01*
X56364Y-40387D01*
X56365Y-40312D01*
X56365Y-39862D01*
X56336Y-39792D01*
X56282Y-39739D01*
X56212Y-39710D01*
X56137Y-39709D01*
X55887Y-39709D01*
X55817Y-39738D01*
X55764Y-39792D01*
X55750Y-39825D01*
X55736Y-39792D01*
X55682Y-39739D01*
X55612Y-39710D01*
X55537Y-39709D01*
X55287Y-39709D01*
X55217Y-39738D01*
X55164Y-39792D01*
X55135Y-39862D01*
X55134Y-39937D01*
X55134Y-40387D01*
X55163Y-40456D01*
X55138Y-40481D01*
X54197Y-40481D01*
X54261Y-40416D01*
X54282Y-40367D01*
X54288Y-40382D01*
X54342Y-40435D01*
X54412Y-40464D01*
X54487Y-40465D01*
X54837Y-40465D01*
X54907Y-40436D01*
X54960Y-40382D01*
X54989Y-40312D01*
X54990Y-40237D01*
X54990Y-39687D01*
X54961Y-39617D01*
X54907Y-39564D01*
X54893Y-39558D01*
X54893Y-39250D01*
X54893Y-39249D01*
X54873Y-39147D01*
X54815Y-39059D01*
X54815Y-39059D01*
X54768Y-39013D01*
X54768Y-38791D01*
X54774Y-38789D01*
X54911Y-38653D01*
X54985Y-38474D01*
X54985Y-38281D01*
X54911Y-38103D01*
X54775Y-37966D01*
X54596Y-37892D01*
X54403Y-37892D01*
X54397Y-37895D01*
X54387Y-37885D01*
X54391Y-37886D01*
X54607Y-37886D01*
X54807Y-37804D01*
X54961Y-37651D01*
X55044Y-37451D01*
X55044Y-37234D01*
X54961Y-37034D01*
X54808Y-36881D01*
X54707Y-36839D01*
X54899Y-36759D01*
X55046Y-36612D01*
X55126Y-36419D01*
X55127Y-36211D01*
X55047Y-36018D01*
X54899Y-35870D01*
X54707Y-35790D01*
X54498Y-35790D01*
X54305Y-35869D01*
X54157Y-36017D01*
X54077Y-36210D01*
X54077Y-36418D01*
X54157Y-36611D01*
X54304Y-36759D01*
X54397Y-36798D01*
X54392Y-36798D01*
X54192Y-36880D01*
X54038Y-37033D01*
X53955Y-37233D01*
X53955Y-37450D01*
X54031Y-37633D01*
X54022Y-37631D01*
X52969Y-37631D01*
X53044Y-37451D01*
X53044Y-37234D01*
X52961Y-37034D01*
X52808Y-36881D01*
X52608Y-36798D01*
X52601Y-36798D01*
X52694Y-36759D01*
X52842Y-36612D01*
X52922Y-36419D01*
X52922Y-36211D01*
X52842Y-36018D01*
X52695Y-35870D01*
X52502Y-35790D01*
X52293Y-35790D01*
X52100Y-35869D01*
X51953Y-36017D01*
X51873Y-36210D01*
X51872Y-36418D01*
X51952Y-36611D01*
X52100Y-36759D01*
X52292Y-36839D01*
X52192Y-36880D01*
X52038Y-37033D01*
X51955Y-37233D01*
X51955Y-37450D01*
X52038Y-37650D01*
X52062Y-37674D01*
X52009Y-37709D01*
X52009Y-37709D01*
X52009Y-37709D01*
X51127Y-38592D01*
X51127Y-36211D01*
X51047Y-36018D01*
X50899Y-35870D01*
X50707Y-35790D01*
X50498Y-35790D01*
X50305Y-35869D01*
X50157Y-36017D01*
X50077Y-36210D01*
X50077Y-36418D01*
X50157Y-36611D01*
X50304Y-36759D01*
X50397Y-36798D01*
X50392Y-36798D01*
X50192Y-36880D01*
X50038Y-37033D01*
X49955Y-37233D01*
X49955Y-37450D01*
X50038Y-37650D01*
X50191Y-37803D01*
X50391Y-37886D01*
X50607Y-37886D01*
X50807Y-37804D01*
X50961Y-37651D01*
X51044Y-37451D01*
X51044Y-37234D01*
X50961Y-37034D01*
X50808Y-36881D01*
X50707Y-36839D01*
X50899Y-36759D01*
X51046Y-36612D01*
X51126Y-36419D01*
X51127Y-36211D01*
X51127Y-38592D01*
X50809Y-38909D01*
X50768Y-38971D01*
X50768Y-38791D01*
X50774Y-38789D01*
X50911Y-38653D01*
X50985Y-38474D01*
X50985Y-38281D01*
X50911Y-38103D01*
X50775Y-37966D01*
X50596Y-37892D01*
X50403Y-37892D01*
X50225Y-37966D01*
X50088Y-38102D01*
X50014Y-38281D01*
X50014Y-38474D01*
X50088Y-38652D01*
X50224Y-38789D01*
X50231Y-38791D01*
X50231Y-39250D01*
X50251Y-39352D01*
X50309Y-39440D01*
X50356Y-39486D01*
X50356Y-39534D01*
X50037Y-39534D01*
X49967Y-39563D01*
X49914Y-39617D01*
X49885Y-39687D01*
X49884Y-39731D01*
X49768Y-39731D01*
X49768Y-38791D01*
X49774Y-38789D01*
X49911Y-38653D01*
X49985Y-38474D01*
X49985Y-38281D01*
X49911Y-38103D01*
X49775Y-37966D01*
X49596Y-37892D01*
X49403Y-37892D01*
X49225Y-37966D01*
X49088Y-38102D01*
X49044Y-38209D01*
X49044Y-37234D01*
X48961Y-37034D01*
X48808Y-36881D01*
X48608Y-36798D01*
X48601Y-36798D01*
X48694Y-36759D01*
X48842Y-36612D01*
X48922Y-36419D01*
X48922Y-36211D01*
X48842Y-36018D01*
X48695Y-35870D01*
X48502Y-35790D01*
X48293Y-35790D01*
X48100Y-35869D01*
X47953Y-36017D01*
X47873Y-36210D01*
X47872Y-36418D01*
X47952Y-36611D01*
X48100Y-36759D01*
X48292Y-36839D01*
X48192Y-36880D01*
X48038Y-37033D01*
X47955Y-37233D01*
X47955Y-37450D01*
X48038Y-37650D01*
X48191Y-37803D01*
X48319Y-37857D01*
X48214Y-37900D01*
X48188Y-37995D01*
X48500Y-38307D01*
X48811Y-37995D01*
X48785Y-37900D01*
X48672Y-37860D01*
X48807Y-37804D01*
X48961Y-37651D01*
X49044Y-37451D01*
X49044Y-37234D01*
X49044Y-38209D01*
X49035Y-38232D01*
X48977Y-38092D01*
X48882Y-38066D01*
X48570Y-38377D01*
X48882Y-38689D01*
X48977Y-38662D01*
X49030Y-38512D01*
X49088Y-38652D01*
X49224Y-38789D01*
X49231Y-38791D01*
X49231Y-39534D01*
X48912Y-39534D01*
X48842Y-39563D01*
X48811Y-39594D01*
X48811Y-38760D01*
X48500Y-38448D01*
X48429Y-38519D01*
X48429Y-38377D01*
X48117Y-38066D01*
X48022Y-38092D01*
X47949Y-38297D01*
X47960Y-38513D01*
X48022Y-38662D01*
X48117Y-38689D01*
X48429Y-38377D01*
X48429Y-38519D01*
X48188Y-38760D01*
X48214Y-38855D01*
X48419Y-38928D01*
X48636Y-38917D01*
X48785Y-38855D01*
X48811Y-38760D01*
X48811Y-39594D01*
X48789Y-39617D01*
X48782Y-39632D01*
X48761Y-39583D01*
X48691Y-39512D01*
X48599Y-39474D01*
X48487Y-39475D01*
X48425Y-39537D01*
X48425Y-39950D01*
X48432Y-39950D01*
X48432Y-40050D01*
X48425Y-40050D01*
X48425Y-40462D01*
X48487Y-40525D01*
X48599Y-40525D01*
X48691Y-40487D01*
X48761Y-40416D01*
X48782Y-40367D01*
X48788Y-40382D01*
X48842Y-40435D01*
X48912Y-40464D01*
X48987Y-40465D01*
X49231Y-40465D01*
X49231Y-40784D01*
X48912Y-40784D01*
X48842Y-40813D01*
X48789Y-40867D01*
X48760Y-40937D01*
X48759Y-40981D01*
X48737Y-40981D01*
X48711Y-40917D01*
X48657Y-40864D01*
X48587Y-40835D01*
X48512Y-40834D01*
X48325Y-40834D01*
X48325Y-40462D01*
X48325Y-40050D01*
X48325Y-39950D01*
X48325Y-39537D01*
X48262Y-39475D01*
X48150Y-39474D01*
X48058Y-39512D01*
X47988Y-39583D01*
X47950Y-39675D01*
X47949Y-39774D01*
X47950Y-39887D01*
X48012Y-39950D01*
X48325Y-39950D01*
X48325Y-40050D01*
X48012Y-40050D01*
X47950Y-40112D01*
X47949Y-40225D01*
X47950Y-40324D01*
X47988Y-40416D01*
X48058Y-40487D01*
X48150Y-40525D01*
X48262Y-40525D01*
X48325Y-40462D01*
X48325Y-40834D01*
X48262Y-40834D01*
X48192Y-40863D01*
X48139Y-40917D01*
X48125Y-40950D01*
X48111Y-40917D01*
X48057Y-40864D01*
X48053Y-40862D01*
X48053Y-40862D01*
X48015Y-40804D01*
X48015Y-40804D01*
X47551Y-40341D01*
X47551Y-36701D01*
X47548Y-36283D01*
X47394Y-35911D01*
X47247Y-35823D01*
X47176Y-35894D01*
X47176Y-35752D01*
X47088Y-35605D01*
X46701Y-35448D01*
X46283Y-35451D01*
X45911Y-35605D01*
X45823Y-35752D01*
X46500Y-36429D01*
X47176Y-35752D01*
X47176Y-35894D01*
X46570Y-36500D01*
X47247Y-37176D01*
X47394Y-37088D01*
X47551Y-36701D01*
X47551Y-40341D01*
X47176Y-39966D01*
X47176Y-37247D01*
X46500Y-36570D01*
X46429Y-36641D01*
X46429Y-36500D01*
X45752Y-35823D01*
X45605Y-35911D01*
X45448Y-36298D01*
X45451Y-36716D01*
X45605Y-37088D01*
X45752Y-37176D01*
X46429Y-36500D01*
X46429Y-36641D01*
X45823Y-37247D01*
X45911Y-37394D01*
X46298Y-37551D01*
X46716Y-37548D01*
X47088Y-37394D01*
X47176Y-37247D01*
X47176Y-39966D01*
X46847Y-39636D01*
X46847Y-39475D01*
X46825Y-39422D01*
X46869Y-39378D01*
X46907Y-39286D01*
X46907Y-38873D01*
X46869Y-38781D01*
X46798Y-38711D01*
X46706Y-38673D01*
X46607Y-38672D01*
X46612Y-38673D01*
X46550Y-38735D01*
X46550Y-39030D01*
X46844Y-39030D01*
X46907Y-38967D01*
X46907Y-38873D01*
X46907Y-39286D01*
X46907Y-39192D01*
X46844Y-39130D01*
X46550Y-39130D01*
X46550Y-39137D01*
X46450Y-39137D01*
X46450Y-39130D01*
X46450Y-39030D01*
X46450Y-38735D01*
X46387Y-38673D01*
X46392Y-38672D01*
X46293Y-38673D01*
X46201Y-38711D01*
X46130Y-38781D01*
X46092Y-38873D01*
X46093Y-38967D01*
X46155Y-39030D01*
X46450Y-39030D01*
X46450Y-39130D01*
X46155Y-39130D01*
X46093Y-39192D01*
X46092Y-39286D01*
X46130Y-39378D01*
X46174Y-39422D01*
X46153Y-39475D01*
X46152Y-39550D01*
X46152Y-39864D01*
X46181Y-39934D01*
X46235Y-39987D01*
X46305Y-40016D01*
X46380Y-40017D01*
X46466Y-40017D01*
X47509Y-41060D01*
X47509Y-41062D01*
X47509Y-41512D01*
X47538Y-41582D01*
X47592Y-41635D01*
X47662Y-41664D01*
X47737Y-41665D01*
X47987Y-41665D01*
X48057Y-41636D01*
X48110Y-41582D01*
X48124Y-41549D01*
X48138Y-41582D01*
X48192Y-41635D01*
X48262Y-41664D01*
X48337Y-41665D01*
X48587Y-41665D01*
X48657Y-41636D01*
X48710Y-41582D01*
X48737Y-41518D01*
X48759Y-41518D01*
X48759Y-41562D01*
X48788Y-41632D01*
X48842Y-41685D01*
X48856Y-41691D01*
X48856Y-41859D01*
X48772Y-41876D01*
X48684Y-41934D01*
X48559Y-42059D01*
X48520Y-42119D01*
X48520Y-42119D01*
X48480Y-42158D01*
X48451Y-42228D01*
X48451Y-42304D01*
X48451Y-42319D01*
X48372Y-42371D01*
X47559Y-43184D01*
X47501Y-43272D01*
X47481Y-43375D01*
X47481Y-44731D01*
X47054Y-44731D01*
X47054Y-42081D01*
X47054Y-41081D01*
X47043Y-40863D01*
X46981Y-40712D01*
X46885Y-40684D01*
X46815Y-40755D01*
X46815Y-40614D01*
X46787Y-40518D01*
X46581Y-40445D01*
X46363Y-40456D01*
X46212Y-40518D01*
X46184Y-40614D01*
X46500Y-40929D01*
X46815Y-40614D01*
X46815Y-40755D01*
X46570Y-41000D01*
X46885Y-41315D01*
X46981Y-41287D01*
X47054Y-41081D01*
X47054Y-42081D01*
X47043Y-41863D01*
X46981Y-41712D01*
X46885Y-41684D01*
X46815Y-41755D01*
X46815Y-41614D01*
X46787Y-41518D01*
X46739Y-41501D01*
X46787Y-41481D01*
X46815Y-41385D01*
X46500Y-41070D01*
X46429Y-41141D01*
X46429Y-41000D01*
X46114Y-40684D01*
X46018Y-40712D01*
X45945Y-40918D01*
X45956Y-41136D01*
X46018Y-41287D01*
X46114Y-41315D01*
X46429Y-41000D01*
X46429Y-41141D01*
X46184Y-41385D01*
X46212Y-41481D01*
X46260Y-41498D01*
X46212Y-41518D01*
X46184Y-41614D01*
X46500Y-41929D01*
X46815Y-41614D01*
X46815Y-41755D01*
X46570Y-42000D01*
X46885Y-42315D01*
X46981Y-42287D01*
X47054Y-42081D01*
X47054Y-44731D01*
X46990Y-44731D01*
X46990Y-44662D01*
X46961Y-44592D01*
X46907Y-44539D01*
X46837Y-44510D01*
X46762Y-44509D01*
X46370Y-44509D01*
X46393Y-44486D01*
X46402Y-44489D01*
X46597Y-44490D01*
X46777Y-44415D01*
X46915Y-44277D01*
X46989Y-44097D01*
X46990Y-43902D01*
X46915Y-43722D01*
X46777Y-43584D01*
X46597Y-43510D01*
X46402Y-43509D01*
X46347Y-43533D01*
X46393Y-43486D01*
X46402Y-43489D01*
X46597Y-43490D01*
X46777Y-43415D01*
X46915Y-43277D01*
X46989Y-43097D01*
X46990Y-42902D01*
X46915Y-42722D01*
X46777Y-42584D01*
X46658Y-42535D01*
X46787Y-42481D01*
X46815Y-42385D01*
X46500Y-42070D01*
X46429Y-42141D01*
X46429Y-42000D01*
X46114Y-41684D01*
X46018Y-41712D01*
X45945Y-41918D01*
X45956Y-42136D01*
X46018Y-42287D01*
X46114Y-42315D01*
X46429Y-42000D01*
X46429Y-42141D01*
X46184Y-42385D01*
X46212Y-42481D01*
X46351Y-42531D01*
X46222Y-42584D01*
X46084Y-42722D01*
X46010Y-42902D01*
X46009Y-43097D01*
X46013Y-43106D01*
X45559Y-43559D01*
X45501Y-43647D01*
X45481Y-43750D01*
X45481Y-45775D01*
X45501Y-45877D01*
X45559Y-45965D01*
X45694Y-46099D01*
X45620Y-46141D01*
X45620Y-46572D01*
X45628Y-46572D01*
X45628Y-46672D01*
X45620Y-46672D01*
X45620Y-46886D01*
X45606Y-46960D01*
X45606Y-47750D01*
X45626Y-47852D01*
X45684Y-47940D01*
X45934Y-48190D01*
X45934Y-48190D01*
X46022Y-48248D01*
X46125Y-48268D01*
X46178Y-48268D01*
X46178Y-48269D01*
X46156Y-48291D01*
X46118Y-48383D01*
X46118Y-48409D01*
X46180Y-48472D01*
X46237Y-48472D01*
X46260Y-48495D01*
X46330Y-48524D01*
X46405Y-48524D01*
X46459Y-48524D01*
X46395Y-48551D01*
X46180Y-48551D01*
X46118Y-48613D01*
X46118Y-48640D01*
X46156Y-48731D01*
X46193Y-48769D01*
X46142Y-48917D01*
X46154Y-49110D01*
X46205Y-49233D01*
X46294Y-49253D01*
X46563Y-48984D01*
X46557Y-48978D01*
X46628Y-48907D01*
X46633Y-48913D01*
X46639Y-48907D01*
X46710Y-48978D01*
X46704Y-48984D01*
X46973Y-49253D01*
X47062Y-49233D01*
X47125Y-49050D01*
X47113Y-48857D01*
X47106Y-48840D01*
X47146Y-48840D01*
X47238Y-48802D01*
X47308Y-48731D01*
X47346Y-48640D01*
X47346Y-48613D01*
X47283Y-48551D01*
X46869Y-48551D01*
X46792Y-48524D01*
X47134Y-48524D01*
X47203Y-48495D01*
X47227Y-48472D01*
X47283Y-48472D01*
X47313Y-48443D01*
X47559Y-48690D01*
X47634Y-48740D01*
X47634Y-48762D01*
X47663Y-48832D01*
X47681Y-48849D01*
X47681Y-48900D01*
X47664Y-48917D01*
X47635Y-48987D01*
X47634Y-49062D01*
X47634Y-49512D01*
X47663Y-49582D01*
X47717Y-49635D01*
X47787Y-49664D01*
X47862Y-49665D01*
X48112Y-49665D01*
X48182Y-49636D01*
X48235Y-49582D01*
X48249Y-49549D01*
X48263Y-49582D01*
X48317Y-49635D01*
X48387Y-49664D01*
X48462Y-49665D01*
X48712Y-49665D01*
X48782Y-49636D01*
X48835Y-49582D01*
X48864Y-49512D01*
X48865Y-49437D01*
X48865Y-49390D01*
X49769Y-48485D01*
X49754Y-48521D01*
X49754Y-48706D01*
X49825Y-48877D01*
X49955Y-49008D01*
X50127Y-49079D01*
X50312Y-49079D01*
X50324Y-49074D01*
X50397Y-49123D01*
X50500Y-49143D01*
X52519Y-49143D01*
X52621Y-49123D01*
X52621Y-49123D01*
X52687Y-49079D01*
X52872Y-49079D01*
X53043Y-49008D01*
X53169Y-48882D01*
X53830Y-48882D01*
X53955Y-49008D01*
X54127Y-49079D01*
X54312Y-49079D01*
X54483Y-49008D01*
X54614Y-48878D01*
X54685Y-48707D01*
X54685Y-48690D01*
X55182Y-49187D01*
X55190Y-49206D01*
X55292Y-49309D01*
X55427Y-49364D01*
X55572Y-49365D01*
X55706Y-49309D01*
X55809Y-49207D01*
X55864Y-49072D01*
X55865Y-48927D01*
X55824Y-48829D01*
X56559Y-49565D01*
X56647Y-49623D01*
X56647Y-49623D01*
X56750Y-49643D01*
X58752Y-49643D01*
X58792Y-49684D01*
X58927Y-49739D01*
X59072Y-49740D01*
X59206Y-49684D01*
X59309Y-49582D01*
X59364Y-49447D01*
X59365Y-49302D01*
X59309Y-49168D01*
X59207Y-49065D01*
X59072Y-49010D01*
X58927Y-49009D01*
X58793Y-49065D01*
X58752Y-49106D01*
X56861Y-49106D01*
X56834Y-49079D01*
X56872Y-49079D01*
X57043Y-49008D01*
X57169Y-48882D01*
X57830Y-48882D01*
X57955Y-49008D01*
X58127Y-49079D01*
X58312Y-49079D01*
X58483Y-49008D01*
X58614Y-48878D01*
X58685Y-48707D01*
X58685Y-48521D01*
X58632Y-48393D01*
X59263Y-48393D01*
X60584Y-49715D01*
X60672Y-49773D01*
X60775Y-49793D01*
X61284Y-49793D01*
X61284Y-49862D01*
X61313Y-49932D01*
X61367Y-49985D01*
X61437Y-50014D01*
X61512Y-50015D01*
X62312Y-50015D01*
X62382Y-49986D01*
X62435Y-49932D01*
X62464Y-49862D01*
X62465Y-49787D01*
X62465Y-49187D01*
X62436Y-49117D01*
X62382Y-49064D01*
X62312Y-49035D01*
X62237Y-49034D01*
X61437Y-49034D01*
X61367Y-49063D01*
X61314Y-49117D01*
X61285Y-49187D01*
X61284Y-49256D01*
X60886Y-49256D01*
X60709Y-49079D01*
X60872Y-49079D01*
X61043Y-49008D01*
X61174Y-48878D01*
X61245Y-48707D01*
X61245Y-48521D01*
X61174Y-48350D01*
X61044Y-48219D01*
X60873Y-48148D01*
X60687Y-48148D01*
X60516Y-48219D01*
X60385Y-48349D01*
X60314Y-48521D01*
X60314Y-48684D01*
X59773Y-48143D01*
X60625Y-48143D01*
X60727Y-48123D01*
X60727Y-48123D01*
X60815Y-48065D01*
X61190Y-47690D01*
X61238Y-47618D01*
X61379Y-47759D01*
X61367Y-47763D01*
X61314Y-47817D01*
X61285Y-47887D01*
X61284Y-47962D01*
X61284Y-48562D01*
X61313Y-48632D01*
X61367Y-48685D01*
X61437Y-48714D01*
X61512Y-48715D01*
X62312Y-48715D01*
X62382Y-48686D01*
X62435Y-48632D01*
X62464Y-48562D01*
X62465Y-48487D01*
X62465Y-47887D01*
X62436Y-47817D01*
X62382Y-47764D01*
X62312Y-47735D01*
X62237Y-47734D01*
X62098Y-47734D01*
X62065Y-47684D01*
X61920Y-47540D01*
X62087Y-47540D01*
X62157Y-47511D01*
X62210Y-47457D01*
X62237Y-47393D01*
X62262Y-47393D01*
X62288Y-47457D01*
X62342Y-47510D01*
X62412Y-47539D01*
X62487Y-47540D01*
X62737Y-47540D01*
X62807Y-47511D01*
X62860Y-47457D01*
X62874Y-47424D01*
X62888Y-47457D01*
X62942Y-47510D01*
X63012Y-47539D01*
X63087Y-47540D01*
X63337Y-47540D01*
X63407Y-47511D01*
X63460Y-47457D01*
X63487Y-47393D01*
X63762Y-47393D01*
X63788Y-47457D01*
X63842Y-47510D01*
X63912Y-47539D01*
X63987Y-47540D01*
X64237Y-47540D01*
X64307Y-47511D01*
X64360Y-47457D01*
X64374Y-47424D01*
X64388Y-47457D01*
X64442Y-47510D01*
X64512Y-47539D01*
X64587Y-47540D01*
X64837Y-47540D01*
X64907Y-47511D01*
X64960Y-47457D01*
X64989Y-47387D01*
X64990Y-47312D01*
X64990Y-47265D01*
X65440Y-46815D01*
X65498Y-46727D01*
X65518Y-46625D01*
X65518Y-41747D01*
X65559Y-41707D01*
X65614Y-41572D01*
X65615Y-41427D01*
X65615Y-50760D01*
X65609Y-50764D01*
X65551Y-50776D01*
X65551Y-49701D01*
X65548Y-49283D01*
X65394Y-48911D01*
X65247Y-48823D01*
X65176Y-48894D01*
X65176Y-48752D01*
X65088Y-48605D01*
X64701Y-48448D01*
X64283Y-48451D01*
X63911Y-48605D01*
X63823Y-48752D01*
X64500Y-49429D01*
X65176Y-48752D01*
X65176Y-48894D01*
X64570Y-49500D01*
X65247Y-50176D01*
X65394Y-50088D01*
X65551Y-49701D01*
X65551Y-50776D01*
X65479Y-50790D01*
X65176Y-50790D01*
X65176Y-50247D01*
X64500Y-49570D01*
X64429Y-49641D01*
X64429Y-49500D01*
X63752Y-48823D01*
X63605Y-48911D01*
X63448Y-49298D01*
X63451Y-49716D01*
X63605Y-50088D01*
X63752Y-50176D01*
X64429Y-49500D01*
X64429Y-49641D01*
X63823Y-50247D01*
X63911Y-50394D01*
X64298Y-50551D01*
X64716Y-50548D01*
X65088Y-50394D01*
X65176Y-50247D01*
X65176Y-50790D01*
X61020Y-50790D01*
X61043Y-50780D01*
X61174Y-50650D01*
X61245Y-50479D01*
X61245Y-50293D01*
X61174Y-50122D01*
X61044Y-49991D01*
X60873Y-49920D01*
X60687Y-49920D01*
X60516Y-49991D01*
X60385Y-50121D01*
X60314Y-50293D01*
X60314Y-50478D01*
X60385Y-50649D01*
X60515Y-50780D01*
X60539Y-50790D01*
X58460Y-50790D01*
X58483Y-50780D01*
X58614Y-50650D01*
X58685Y-50479D01*
X58685Y-50293D01*
X58614Y-50122D01*
X58484Y-49991D01*
X58313Y-49920D01*
X58127Y-49920D01*
X57956Y-49991D01*
X57825Y-50121D01*
X57754Y-50293D01*
X57754Y-50478D01*
X57825Y-50649D01*
X57955Y-50780D01*
X57979Y-50790D01*
X57020Y-50790D01*
X57043Y-50780D01*
X57174Y-50650D01*
X57245Y-50479D01*
X57245Y-50293D01*
X57174Y-50122D01*
X57044Y-49991D01*
X56873Y-49920D01*
X56687Y-49920D01*
X56516Y-49991D01*
X56385Y-50121D01*
X56314Y-50293D01*
X56314Y-50478D01*
X56385Y-50649D01*
X56515Y-50780D01*
X56539Y-50790D01*
X54460Y-50790D01*
X54483Y-50780D01*
X54614Y-50650D01*
X54685Y-50479D01*
X54685Y-50293D01*
X54614Y-50122D01*
X54484Y-49991D01*
X54313Y-49920D01*
X54127Y-49920D01*
X53956Y-49991D01*
X53825Y-50121D01*
X53754Y-50293D01*
X53754Y-50478D01*
X53825Y-50649D01*
X53955Y-50780D01*
X53979Y-50790D01*
X53020Y-50790D01*
X53043Y-50780D01*
X53174Y-50650D01*
X53245Y-50479D01*
X53245Y-50293D01*
X53174Y-50122D01*
X53044Y-49991D01*
X52873Y-49920D01*
X52687Y-49920D01*
X52516Y-49991D01*
X52385Y-50121D01*
X52314Y-50293D01*
X52314Y-50478D01*
X52385Y-50649D01*
X52515Y-50780D01*
X52539Y-50790D01*
X50460Y-50790D01*
X50483Y-50780D01*
X50614Y-50650D01*
X50685Y-50479D01*
X50685Y-50293D01*
X50614Y-50122D01*
X50484Y-49991D01*
X50313Y-49920D01*
X50127Y-49920D01*
X49956Y-49991D01*
X49825Y-50121D01*
X49754Y-50293D01*
X49754Y-50478D01*
X49825Y-50649D01*
X49955Y-50780D01*
X49979Y-50790D01*
X46902Y-50790D01*
X46902Y-49323D01*
X46633Y-49054D01*
X46364Y-49323D01*
X46384Y-49412D01*
X46567Y-49475D01*
X46760Y-49463D01*
X46883Y-49412D01*
X46902Y-49323D01*
X46902Y-50790D01*
X46099Y-50790D01*
X46099Y-49512D01*
X46099Y-49243D01*
X46007Y-49051D01*
X45849Y-48909D01*
X45705Y-48849D01*
X45620Y-48897D01*
X45620Y-49327D01*
X46051Y-49327D01*
X46099Y-49243D01*
X46099Y-49512D01*
X46051Y-49427D01*
X45620Y-49427D01*
X45620Y-49858D01*
X45705Y-49906D01*
X45849Y-49846D01*
X46007Y-49704D01*
X46099Y-49512D01*
X46099Y-50790D01*
X45521Y-50790D01*
X45390Y-50764D01*
X45297Y-50702D01*
X45235Y-50609D01*
X45209Y-50479D01*
X45209Y-49772D01*
X45292Y-49846D01*
X45436Y-49906D01*
X45520Y-49858D01*
X45520Y-49427D01*
X45512Y-49427D01*
X45512Y-49327D01*
X45520Y-49327D01*
X45520Y-48897D01*
X45436Y-48849D01*
X45292Y-48909D01*
X45209Y-48983D01*
X45209Y-47016D01*
X45292Y-47090D01*
X45436Y-47150D01*
X45520Y-47102D01*
X45520Y-46672D01*
X45512Y-46672D01*
X45512Y-46572D01*
X45520Y-46572D01*
X45520Y-46141D01*
X45436Y-46093D01*
X45292Y-46153D01*
X45209Y-46227D01*
X45209Y-35520D01*
X45235Y-35390D01*
X45297Y-35297D01*
X45390Y-35235D01*
X45521Y-35209D01*
X65479Y-35209D01*
X65609Y-35235D01*
X65702Y-35297D01*
X65764Y-35390D01*
X65790Y-35521D01*
X65790Y-50478D01*
M02*
