M48
;DRILL file {Pcbnew (2013-05-16 BZR 4016)-stable} date 11/18/2013 1:12:55 AM
;FORMAT={-:-/ absolute / inch / decimal}
FMAT,2
INCH,TZ
T1C0.025
T2C0.031
T3C0.039
T4C0.040
T5C0.043
T6C0.051
T7C0.063
T8C0.067
T9C0.120
%
G90
G05
M72
T1
X4.6Y-3.8
X4.7Y-3.8
X4.7Y-5.
X4.75Y-4.
X4.8Y-5.
X4.9Y-4.4125
X4.9Y-5.
X4.95Y-3.625
X4.95Y-3.7375
X5.Y-4.55
X5.025Y-4.125
X5.0625Y-4.475
X5.15Y-4.1625
X5.15Y-4.575
X5.175Y-4.85
X5.1875Y-4.0375
X5.2175Y-4.5075
X5.275Y-4.25
X5.3175Y-4.7825
X5.325Y-4.1
X5.35Y-3.6375
X5.35Y-3.7375
X5.35Y-4.
X5.35Y-4.9
X5.35Y-5.
X5.375Y-4.65
X5.4Y-4.525
X5.425Y-4.35
X5.425Y-4.625
X5.4375Y-4.4875
X5.475Y-4.15
X5.5Y-4.775
X5.525Y-4.25
X5.5375Y-4.4875
X5.55Y-3.7
X5.55Y-4.3125
X5.55Y-4.65
X5.55Y-4.9
X5.65Y-3.7
X5.6625Y-4.15
X5.6625Y-4.7125
X5.675Y-4.4875
X5.7Y-4.125
X5.7125Y-4.225
X5.7125Y-4.375
X5.725Y-4.
X5.75Y-3.7
X5.75Y-4.9
X5.75Y-5.
X5.8Y-3.9125
X5.825Y-4.0875
X5.825Y-4.3375
X5.85Y-3.7
X5.85Y-4.25
X5.9Y-4.9375
X5.95Y-3.7
X5.95Y-4.9
X5.9625Y-4.6625
X5.975Y-4.3375
X5.975Y-4.55
X6.0125Y-4.825
X6.025Y-4.425
X6.05Y-3.7
X6.075Y-4.5125
X6.0875Y-4.1875
X6.1125Y-4.5875
X6.15Y-3.7
X6.175Y-4.65
X6.1875Y-4.
X6.225Y-4.375
X6.25Y-3.7
X6.25Y-4.25
X6.3Y-3.9125
X6.3Y-4.8
X6.3Y-4.9
X6.3Y-5.
X6.35Y-3.7
X6.3625Y-4.6625
X6.375Y-4.3375
X6.375Y-4.55
X6.4Y-4.8
X6.425Y-4.425
X6.45Y-3.7
X6.475Y-4.35
X6.475Y-4.5125
X6.4875Y-4.1875
X6.5Y-4.8
X6.525Y-3.975
X6.525Y-4.1
X6.525Y-4.15
T2
X4.6634Y-4.7016
X4.6634Y-4.8984
X4.85Y-3.8378
X4.95Y-3.8378
X5.05Y-3.8378
X5.25Y-3.8378
X5.35Y-3.8378
X5.45Y-3.8378
T3
X5.022Y-4.8614
X5.022Y-5.0386
X5.278Y-4.8614
X5.278Y-5.0386
X5.422Y-4.8614
X5.422Y-5.0386
X5.678Y-4.8614
X5.678Y-5.0386
X5.822Y-4.8614
X5.822Y-5.0386
X6.078Y-4.8614
X6.078Y-5.0386
T4
X4.65Y-4.1
X4.65Y-4.2
X4.65Y-4.3
X4.65Y-4.4
X4.65Y-4.5
T5
X4.5571Y-4.6622
X4.5571Y-4.9378
X4.85Y-3.7343
X5.05Y-3.7343
X5.25Y-3.7343
X5.45Y-3.7343
T6
X5.6031Y-3.815
X5.7016Y-3.815
X5.8Y-3.6181
X5.8984Y-3.815
X5.9969Y-3.815
X6.1031Y-3.815
X6.2016Y-3.815
X6.3Y-3.6181
X6.3984Y-3.815
X6.4969Y-3.815
T7
X5.6031Y-3.6181
X5.8Y-3.815
X5.9969Y-3.6181
X6.1031Y-3.6181
X6.3Y-3.815
X6.4969Y-3.6181
T8
X4.8398Y-3.6315
X5.0602Y-3.6315
X5.2398Y-3.6315
X5.4602Y-3.6315
T9
X4.65Y-3.65
X6.45Y-4.95
T0
M30
